<svg width="112" height="46" viewBox="0 0 112 46" fill="none" xmlns="http://www.w3.org/2000/svg">
<g clip-path="url(#clip0_575_38)">
<path d="M13.4836 0.00012207H14.4572C17.8371 0.0716533 21.1619 1.39498 23.5499 3.73763C22.6682 4.61389 21.7681 5.45438 20.9048 6.33064C19.5638 5.15037 17.9473 4.23835 16.1839 3.91646C13.5754 3.37997 10.7649 3.86281 8.57899 5.31132C6.19098 6.83135 4.57448 9.40648 4.22547 12.1604C3.83971 14.8786 4.62959 17.7399 6.44815 19.85C8.19323 21.9066 10.8568 23.1941 13.6122 23.2835C16.1839 23.4266 18.8658 22.6576 20.7394 20.9051C22.209 19.6712 22.8886 17.7935 23.1091 15.9695C20.0598 15.9695 17.0105 15.9873 13.9612 15.9695V12.2856H26.8013C27.4626 16.2377 26.5074 20.6905 23.4214 23.516C21.364 25.5189 18.5168 26.6992 15.6144 26.9316C12.8039 27.1999 9.90157 26.6813 7.40335 25.3579C4.40916 23.8021 2.02115 21.1734 0.845521 18.0796C-0.256635 15.2363 -0.275005 12.0174 0.753675 9.15612C1.69051 6.54523 3.4907 4.23835 5.80522 2.62889C8.02791 1.03732 10.7282 0.161067 13.4836 0.00012207Z" fill="#3780FF"/>
<path d="M89 1.00012H93V26.9956C91.6729 26.9956 90.3271 27.0138 89 26.9774C89.0187 18.3304 89 9.66527 89 1.00012Z" fill="#38B137"/>
<path d="M36.2461 10.1644C38.685 9.70139 41.3272 10.22 43.3412 11.6832C45.1704 12.9796 46.4454 15.017 46.8334 17.2395C47.3323 19.8139 46.704 22.6291 45.0411 24.6665C43.2488 26.9446 40.311 28.167 37.4471 27.9817C34.8233 27.8336 32.2735 26.5186 30.7214 24.3701C28.9661 21.9994 28.5411 18.7397 29.502 15.9615C30.4628 12.9796 33.1789 10.7015 36.2461 10.1644ZM36.8004 13.6834C35.8026 13.9427 34.8788 14.5169 34.2136 15.3318C32.4213 17.4803 32.5322 20.9808 34.5092 22.981C35.6363 24.1293 37.3362 24.6665 38.9067 24.3516C40.3664 24.0923 41.6413 23.1107 42.3435 21.8142C43.5629 19.6102 43.2119 16.5727 41.3457 14.8503C40.1447 13.739 38.3894 13.276 36.8004 13.6834Z" fill="#FA3913"/>
<path d="M56.2456 10.1659C59.0377 9.62851 62.0887 10.4067 64.1782 12.3708C67.5805 15.4281 67.9503 21.1536 65.0472 24.6741C63.2906 26.8975 60.443 28.1205 57.6324 27.9908C54.9513 27.9166 52.3071 26.5826 50.7169 24.3776C48.9233 21.9503 48.535 18.6151 49.552 15.7801C50.569 12.8896 53.2316 10.6847 56.2456 10.1659ZM56.8004 13.6864C55.8019 13.9458 54.8773 14.5202 54.2117 15.3169C52.4365 17.4292 52.5105 20.8756 54.4151 22.8953C55.543 24.0997 57.2996 24.6926 58.9268 24.3591C60.3691 24.0811 61.6634 23.1176 62.3661 21.8206C63.568 19.5971 63.2167 16.5584 61.3306 14.8352C60.1287 13.7234 58.3721 13.2787 56.8004 13.6864Z" fill="#FCBD06"/>
<path d="M72.2781 11.2374C74.3771 9.9073 77.1697 9.53783 79.433 10.6832C80.1449 10.9972 80.729 11.533 81.2948 12.0687C81.313 11.5699 81.2948 11.0527 81.313 10.5354C82.5359 10.5539 83.7588 10.5354 85 10.5539V26.8474C84.9817 29.3043 84.3612 31.9091 82.6089 33.701C80.6924 35.6777 77.7538 36.2873 75.1072 35.8809C72.2781 35.456 69.8141 33.3685 68.7189 30.7268C69.8141 30.1911 70.964 29.7662 72.0956 29.2674C72.7344 30.7822 74.0303 32.0754 75.6548 32.3709C77.2793 32.6665 79.1593 32.2601 80.2179 30.8931C81.3495 29.4891 81.3495 27.5679 81.2948 25.8498C80.4552 26.6811 79.4878 27.4201 78.3196 27.6972C75.7826 28.4176 72.99 27.5309 71.037 25.7944C69.0657 24.0579 67.8976 21.3793 68.0071 18.7191C68.0618 15.7079 69.741 12.8076 72.2781 11.2374ZM76.0564 13.602C74.943 13.7867 73.9026 14.4148 73.1907 15.2831C71.475 17.3521 71.475 20.6588 73.209 22.6909C74.1946 23.8916 75.7826 24.5567 77.3158 24.3904C78.7577 24.2426 80.0901 23.319 80.802 22.0443C82.0066 19.8829 81.8058 16.9457 80.1814 15.0614C79.1775 13.8976 77.5713 13.3249 76.0564 13.602Z" fill="#3780FF"/>
<path d="M97.8747 12.1963C100.15 10.1223 103.658 9.41867 106.577 10.5112C109.346 11.5297 111.109 14.1036 112 16.7516C107.886 18.4181 103.79 20.0662 99.6759 21.7328C100.245 22.7883 101.117 23.7512 102.292 24.14C103.942 24.7141 105.914 24.5104 107.298 23.4364C107.848 23.029 108.284 22.492 108.701 21.9735C109.744 22.6586 110.787 23.3253 111.829 24.0104C110.35 26.1769 107.867 27.6954 105.193 27.9361C102.236 28.2879 99.0882 27.1769 97.1732 24.9178C94.0258 21.3624 94.3292 15.3998 97.8747 12.1963ZM99.9035 15.622C99.2588 16.5294 98.9934 17.6404 99.0123 18.7329C101.762 17.6219 104.511 16.5108 107.26 15.3813C106.805 14.3443 105.705 13.7147 104.587 13.5481C102.785 13.2333 100.908 14.1776 99.9035 15.622Z" fill="#FA3913"/>
</g>
<defs>
<clipPath id="clip0_575_38">
<rect width="112" height="46" fill="white"/>
</clipPath>
</defs>
</svg>
