<svg width="105" height="17" viewBox="0 0 105 17" fill="none" xmlns="http://www.w3.org/2000/svg">
<path d="M14.5475 5.92992L10.3506 5.29119L8.47444 1.30824C8.4232 1.19919 8.3389 1.11091 8.23476 1.05725C7.97359 0.922235 7.65621 1.03475 7.52563 1.30824L5.64949 5.29119L1.45256 5.92992C1.33685 5.94723 1.23106 6.00435 1.15007 6.0909C1.05215 6.19629 0.998187 6.33808 1.00005 6.48511C1.00191 6.63214 1.05943 6.77239 1.15998 6.87503L4.19652 9.97519L3.47912 14.3528C3.4623 14.4546 3.47306 14.5594 3.51018 14.6551C3.54731 14.7509 3.60931 14.8338 3.68916 14.8946C3.76901 14.9553 3.86352 14.9914 3.96196 14.9987C4.0604 15.0061 4.15883 14.9844 4.24611 14.9361L8.00003 12.8694L11.754 14.9361C11.8564 14.9933 11.9755 15.0123 12.0895 14.9915C12.3771 14.9396 12.5705 14.654 12.5209 14.3528L11.8036 9.97519L14.8401 6.87503C14.9227 6.79021 14.9773 6.67943 14.9938 6.55826C15.0384 6.25534 14.8368 5.97493 14.5475 5.92992V5.92992Z" fill="#F3C93C"/>
<path d="M36.5475 5.92992L32.3506 5.29119L30.4744 1.30824C30.4232 1.19919 30.3389 1.11091 30.2348 1.05725C29.9736 0.922235 29.6562 1.03475 29.5256 1.30824L27.6495 5.29119L23.4526 5.92992C23.3369 5.94723 23.2311 6.00435 23.1501 6.0909C23.0521 6.19629 22.9982 6.33808 23 6.48511C23.0019 6.63214 23.0594 6.77239 23.16 6.87503L26.1965 9.97519L25.4791 14.3528C25.4623 14.4546 25.4731 14.5594 25.5102 14.6551C25.5473 14.7509 25.6093 14.8338 25.6892 14.8946C25.769 14.9553 25.8635 14.9914 25.962 14.9987C26.0604 15.0061 26.1588 14.9844 26.2461 14.9361L30 12.8694L33.754 14.9361C33.8564 14.9933 33.9755 15.0123 34.0895 14.9915C34.3771 14.9396 34.5705 14.654 34.5209 14.3528L33.8036 9.97519L36.8401 6.87503C36.9227 6.79021 36.9773 6.67943 36.9938 6.55826C37.0384 6.25534 36.8368 5.97493 36.5475 5.92992Z" fill="#F3C93C"/>
<path d="M58.5475 5.92992L54.3506 5.29119L52.4744 1.30824C52.4232 1.19919 52.3389 1.11091 52.2348 1.05725C51.9736 0.922235 51.6562 1.03475 51.5256 1.30824L49.6495 5.29119L45.4526 5.92992C45.3369 5.94723 45.2311 6.00435 45.1501 6.0909C45.0521 6.19629 44.9982 6.33808 45 6.48511C45.0019 6.63214 45.0594 6.77239 45.16 6.87503L48.1965 9.97519L47.4791 14.3528C47.4623 14.4546 47.4731 14.5594 47.5102 14.6551C47.5473 14.7509 47.6093 14.8338 47.6892 14.8946C47.769 14.9553 47.8635 14.9914 47.962 14.9987C48.0604 15.0061 48.1588 14.9844 48.2461 14.9361L52 12.8694L55.754 14.9361C55.8564 14.9933 55.9755 15.0123 56.0895 14.9915C56.3771 14.9396 56.5705 14.654 56.5209 14.3528L55.8036 9.97519L58.8401 6.87503C58.9227 6.79021 58.9773 6.67943 58.9938 6.55826C59.0384 6.25534 58.8368 5.97493 58.5475 5.92992Z" fill="#F3C93C"/>
<path d="M80.5475 5.92992L76.3506 5.29119L74.4744 1.30824C74.4232 1.19919 74.3389 1.11091 74.2348 1.05725C73.9736 0.922235 73.6562 1.03475 73.5256 1.30824L71.6495 5.29119L67.4526 5.92992C67.3369 5.94723 67.2311 6.00435 67.1501 6.0909C67.0521 6.19629 66.9982 6.33808 67 6.48511C67.0019 6.63214 67.0594 6.77239 67.16 6.87503L70.1965 9.97519L69.4791 14.3528C69.4623 14.4546 69.4731 14.5594 69.5102 14.6551C69.5473 14.7509 69.6093 14.8338 69.6892 14.8946C69.769 14.9553 69.8635 14.9914 69.962 14.9987C70.0604 15.0061 70.1588 14.9844 70.2461 14.9361L74 12.8694L77.754 14.9361C77.8564 14.9933 77.9755 15.0123 78.0895 14.9915C78.3771 14.9396 78.5705 14.654 78.5209 14.3528L77.8036 9.97519L80.8401 6.87503C80.9227 6.79021 80.9773 6.67943 80.9938 6.55826C81.0384 6.25534 80.8368 5.97493 80.5475 5.92992Z" fill="#F3C93C"/>
<path d="M102.548 5.92992L98.3506 5.29119L96.4744 1.30824C96.4232 1.19919 96.3389 1.11091 96.2348 1.05725C95.9736 0.922235 95.6562 1.03475 95.5256 1.30824L93.6495 5.29119L89.4526 5.92992C89.3369 5.94723 89.2311 6.00435 89.1501 6.0909C89.0521 6.19629 88.9982 6.33808 89 6.48511C89.0019 6.63214 89.0594 6.77239 89.16 6.87503L92.1965 9.97519L91.4791 14.3528C91.4623 14.4546 91.4731 14.5594 91.5102 14.6551C91.5473 14.7509 91.6093 14.8338 91.6892 14.8946C91.769 14.9553 91.8635 14.9914 91.962 14.9987C92.0604 15.0061 92.1588 14.9844 92.2461 14.9361L96 12.8694L99.754 14.9361C99.8564 14.9933 99.9755 15.0123 100.09 14.9915C100.377 14.9396 100.571 14.654 100.521 14.3528L99.8036 9.97519L102.84 6.87503C102.923 6.79021 102.977 6.67943 102.994 6.55826C103.038 6.25534 102.837 5.97493 102.548 5.92992Z" fill="#F3C93C"/>
</svg>
