<svg width="90" height="90" viewBox="0 0 90 90" fill="none" xmlns="http://www.w3.org/2000/svg">
<g clip-path="url(#clip0_1_452)">
<path d="M44.9999 0C20.1902 0 0.000732422 20.1855 0.000732422 44.9984C0.000732422 69.811 20.1889 90 44.9999 90C69.8152 90 89.9992 69.8126 89.9992 44.9984C89.9992 20.1855 69.8165 0 44.9999 0ZM64.4755 35.7787L40.9079 59.3463C40.2002 60.0532 39.2677 60.41 38.3438 60.41C37.4128 60.41 36.4889 60.0534 35.7789 59.3463L25.5291 49.0965C24.112 47.6781 24.112 45.3839 25.5291 43.9671C26.946 42.5502 29.2402 42.5502 30.6573 43.9671L38.3438 51.6562L59.3505 30.6484C60.7644 29.2332 63.0584 29.2332 64.4755 30.6484C65.8926 32.0676 65.8926 34.3619 64.4755 35.7787Z" fill="#13C750"/>
</g>
<defs>
<clipPath id="clip0_1_452">
<rect width="90" height="90" fill="white"/>
</clipPath>
</defs>
</svg>
