<svg width="516" height="516" viewBox="0 0 516 516" fill="none" xmlns="http://www.w3.org/2000/svg">
<path d="M217.091 167.662L260.922 80L304.753 167.662L351.507 144.286L336.896 261.169L386.571 214.416L412.87 255.325L483 231.948L442.091 307.922L483 331.299L383.649 407.273V436.493H138.195V407.273L41.7662 331.299L79.7532 307.922L33 231.948L114.818 255.325L132.351 214.416L184.948 261.169L173.26 144.286L217.091 167.662Z" fill="white"/>
<path d="M219.738 183.497L260.922 103.377L300.733 183.497L339.818 161.818L324.07 283.988L383.649 232.385L409.948 269.935L462.545 249.481L424.558 307.922L462.545 331.299L373.491 401.429V430.649L360.273 424.805V310.844L346.035 311.147V289.42H332.307V300.283H324.07V376.33H318.579L313.088 319.295H288.378V392.626H276.023L266.413 254.112H277.396V243.248H282.887V240.532H277.396V232.385H269.159V226.953H266.413L263.668 205.225L260.922 226.953H258.176V232.385H249.94V240.532H244.449V243.248H249.94V254.112H260.922L252.685 403.49H247.194V360.034H243.076V289.42H238.957V286.704H233.466V267.692L216.993 283.988V362.75H203.265V383.12H196.401V404.848H186.792V388.552H171.691V396.7H161.571V424.805L149.726 430.649V401.429L62.2208 331.299L94.3636 307.922L56.3766 249.481L120.662 272.857L135.273 232.385L196.636 283.988L184.948 161.818L219.738 183.497Z" fill="#A83226"/>
</svg>
