<svg width="50" height="51" viewBox="0 0 50 51" fill="none" xmlns="http://www.w3.org/2000/svg">
<g clip-path="url(#clip0_1_481)">
<path d="M49.3148 49.3562H3.59036C3.21186 49.3562 2.90517 49.0495 2.90517 48.671V14.0965H0.685169C0.444805 14.0965 0.221708 13.9704 0.0978264 13.7643C-0.0260554 13.5582 -0.0329072 13.3022 0.0800116 13.0898L5.61714 2.67034C5.73609 2.44669 5.96878 2.30664 6.2223 2.30664H35.3871C35.6407 2.30664 35.8733 2.44642 35.9923 2.67034L41.5292 13.0898C41.6421 13.3022 41.6352 13.5582 41.5113 13.7643C41.3875 13.9704 41.1646 14.0965 40.924 14.0965H38.6988V28.569L49.5305 32.1624C49.8498 32.2685 50.0447 32.5903 49.9912 32.9219C49.9378 33.2538 49.6511 33.498 49.3148 33.498H47.6731V45.5578H49.3148C49.6933 45.5578 50 45.8645 50 46.243V48.6713C50 49.0495 49.6933 49.3562 49.3148 49.3562ZM38.6985 47.9858H48.6293V46.9279H46.9876C46.6091 46.9279 46.3024 46.6212 46.3024 46.2427V44.4996H38.6985V47.9858ZM4.27555 47.9858H37.3281V14.0965H4.27555V47.9858ZM38.6985 43.1295H46.3024V33.498H38.6985V43.1295ZM38.6985 32.1276H45.0729L38.6985 30.0129V32.1276ZM38.0133 12.7261H39.7836L34.9749 3.67701H6.63396L1.82532 12.7261H38.0133ZM33.3987 44.4999H27.7026C27.3241 44.4999 27.0174 44.1932 27.0174 43.8147V35.1676C27.0174 34.7892 27.3241 34.4825 27.7026 34.4825H33.3987C33.7772 34.4825 34.0839 34.7892 34.0839 35.1676V39.2135C34.102 39.2752 34.1119 39.3404 34.1119 39.4079C34.1119 39.4753 34.102 39.5405 34.0839 39.6022V43.8144C34.0839 44.1929 33.7772 44.4999 33.3987 44.4999ZM28.3878 43.1295H32.7135V40.0933H28.3878V43.1295ZM28.3878 38.7227H32.7135V35.8528H28.3878V38.7227ZM19.5788 44.4999H8.13041C7.75191 44.4999 7.44522 44.1932 7.44522 43.8147V35.1676C7.44522 34.7892 7.75191 34.4825 8.13041 34.4825H19.5788C19.9573 34.4825 20.264 34.7892 20.264 35.1676V43.8144C20.264 44.1929 19.957 44.4999 19.5788 44.4999ZM14.5396 43.1295H18.8933V40.0933H14.5396V43.1295ZM8.8156 43.1295H13.1693V40.0933H8.8156V43.1295ZM14.5396 38.7227H18.8933V35.8528H14.5396V38.7227ZM8.8156 38.7227H13.1693V35.8528H8.8156V38.7227ZM33.4267 28.4394H21.9783C21.5998 28.4394 21.2931 28.1327 21.2931 27.7542V19.1074C21.2931 18.7289 21.5998 18.4222 21.9783 18.4222H33.4267C33.8052 18.4222 34.1119 18.7289 34.1119 19.1074V27.7542C34.1119 28.1327 33.8052 28.4394 33.4267 28.4394ZM28.3878 27.069H32.7415V24.1992H28.3878V27.069ZM22.6635 27.069H27.0172V24.1992H22.6635V27.069ZM28.3878 22.8288H32.7415V19.7926H28.3878V22.8288ZM22.6635 22.8288H27.0172V19.7926H22.6635V22.8288ZM13.8545 28.4394H8.15836C7.77987 28.4394 7.47318 28.1327 7.47318 27.7542V23.7086C7.45509 23.6469 7.44522 23.5817 7.44522 23.5143C7.44522 23.4468 7.45509 23.3816 7.47318 23.3199V19.1074C7.47318 18.7289 7.77987 18.4222 8.15836 18.4222H13.8545C14.233 18.4222 14.5396 18.7289 14.5396 19.1074V27.7542C14.5396 28.1327 14.233 28.4394 13.8545 28.4394ZM8.84355 27.069H13.1693V24.1992H8.84355V27.069ZM8.84355 22.8288H13.1693V19.7926H8.84355V22.8288Z" fill="#CA483A"/>
</g>
<defs>
<clipPath id="clip0_1_481">
<rect width="50" height="50" fill="white" transform="translate(0 0.831543)"/>
</clipPath>
</defs>
</svg>
