<svg width="18" height="18" viewBox="0 0 18 18" fill="none" xmlns="http://www.w3.org/2000/svg">
<path d="M16.5 9C16.5 8.0151 16.306 7.03985 15.9291 6.12983C15.5522 5.21997 14.9998 4.39306 14.3033 3.69672C13.6069 3.00018 12.7801 2.44775 11.8701 2.07092C10.9602 1.6939 9.9849 1.5 9 1.5V3C9.78795 3 10.5682 3.15527 11.2961 3.45667C12.0241 3.75824 12.6855 4.20025 13.2427 4.75744C13.7998 5.31445 14.2418 5.97602 14.5433 6.70386C14.8448 7.43189 15 8.21212 15 9H16.5Z" fill="#343434"/>
<path d="M1.5 7.5V3.75C1.5 3.33581 1.83579 3 2.25 3H6C6.41421 3 6.75 3.33581 6.75 3.75V6.75C6.75 7.16419 6.41421 7.5 6 7.5H4.5C4.5 10.8137 7.1863 13.5 10.5 13.5V12C10.5 11.5858 10.8358 11.25 11.25 11.25H14.25C14.6642 11.25 15 11.5858 15 12V15.75C15 16.1642 14.6642 16.5 14.25 16.5H10.5C5.52944 16.5 1.5 12.4705 1.5 7.5Z" fill="#343434"/>
<path d="M13.1575 7.2779C13.3836 7.82393 13.5 8.40915 13.5 9H12.15C12.15 8.58637 12.0685 8.17673 11.9102 7.7946C11.7519 7.4123 11.5199 7.06513 11.2273 6.7727C10.9348 6.4801 10.5877 6.24811 10.2055 6.08972C9.82327 5.93152 9.41363 5.85004 9 5.85004V4.5C9.59092 4.5 10.1761 4.61645 10.7221 4.84259C11.268 5.06872 11.7641 5.40015 12.1819 5.81799C12.5998 6.23584 12.9314 6.73187 13.1575 7.2779Z" fill="#343434"/>
</svg>
