<svg width="18" height="18" viewBox="0 0 18 18" fill="none" xmlns="http://www.w3.org/2000/svg">
<path d="M17.8375 4.36243L9.16025 13.0403C8.94183 13.2574 8.58836 13.2574 8.36994 13.0403L8.19547 12.8658L8.00613 12.6765L7.18674 11.8571L7.17511 11.8397L3.42261 8.05807C3.20548 7.84095 3.20548 7.48618 3.42261 7.26906L4.60516 6.0878C4.82358 5.86873 5.17576 5.86873 5.39418 6.0878L8.7693 9.48812L15.8646 2.39087C16.083 2.1731 16.4365 2.1731 16.6536 2.39087L17.8375 3.57471C18.054 3.79119 18.054 4.14531 17.8375 4.36243Z" fill="#343434"/>
<path d="M14.084 14.6123C14.084 15.2411 13.5716 15.7535 12.9415 15.7535H2.28433C1.65428 15.7535 1.14184 15.2411 1.14184 14.6123V3.38648C1.14184 2.75773 1.65428 2.24529 2.28433 2.24529H12.9415C13.5716 2.24529 14.084 2.75773 14.084 3.38648L14.8956 2.63559C15.0268 1.71152 14.0931 1.10474 12.9415 1.10474H2.28433C1.02229 1.10474 0 2.12574 0 3.38648V14.6123C0 15.8731 1.02229 16.8954 2.28433 16.8954H12.9415C14.2036 16.8954 15.2258 15.8731 15.2258 14.6123V7.92024L14.0834 9.16354L14.084 14.6123Z" fill="#343434"/>
</svg>
