<svg width="24" height="24" viewBox="0 0 24 24" fill="none" xmlns="http://www.w3.org/2000/svg">
<path d="M12 15C15.3 15 18 12.3 18 9C18 5.7 15.3 3 12 3C8.7 3 6 5.7 6 9C6 12.3 8.7 15 12 15Z" fill="#CA483A"/>
<path d="M22.05 19.575L19.425 14.1C20.4 12.675 21 10.875 21 9C21 4.05 16.95 0 12 0C7.04995 0 2.99995 4.05 2.99995 9C2.99995 10.95 3.59995 12.675 4.64995 14.175L2.09995 19.575C2.02495 19.8 2.02495 20.1 2.09995 20.25C2.17495 20.4 2.47495 20.625 2.69995 20.625L6.22495 20.85L8.62495 23.475C8.77495 23.625 8.99995 23.7 9.14995 23.7C9.14995 23.7 9.22495 23.7 9.29995 23.7C9.52495 23.7 9.74995 23.475 9.89995 23.25L12.075 18.75L14.25 23.25C14.325 23.475 14.55 23.625 14.85 23.7C14.85 23.7 14.925 23.7 15 23.7C15.225 23.7 15.375 23.625 15.525 23.475L17.925 20.85L21.45 20.625C21.675 20.625 21.9 20.475 22.05 20.25C22.2 20.025 22.125 19.8 22.05 19.575ZM12 1.5C16.125 1.5 19.5 4.875 19.5 9C19.5 13.125 16.125 16.5 12 16.5C7.87495 16.5 4.49995 13.125 4.49995 9C4.49995 4.875 7.87495 1.5 12 1.5Z" fill="#CA483A"/>
<path d="M14.8983 6.11719L11.2265 9.78894L9.28217 7.84466L8.23523 8.8916L11.2265 11.8829L15.9452 7.16413L14.8983 6.11719Z" fill="white"/>
</svg>
