<svg width="18" height="18" viewBox="0 0 18 18" fill="none" xmlns="http://www.w3.org/2000/svg">
<path d="M15.75 4.5L9 11.25L6.1875 8.4375" stroke="#343434" stroke-width="2" stroke-miterlimit="10"/>
<path d="M15.0188 7.59375C15.1313 8.04375 15.1875 8.49375 15.1875 9C15.1875 12.4312 12.4312 15.1875 9 15.1875C5.56875 15.1875 2.8125 12.4312 2.8125 9C2.8125 5.56875 5.56875 2.8125 9 2.8125C10.6875 2.8125 12.2063 3.4875 13.275 4.55625L14.0625 3.76875C12.7688 2.475 10.9688 1.6875 9 1.6875C4.95 1.6875 1.6875 4.95 1.6875 9C1.6875 13.05 4.95 16.3125 9 16.3125C13.05 16.3125 16.3125 13.05 16.3125 9C16.3125 8.2125 16.2 7.425 15.9187 6.69375L15.0188 7.59375Z" fill="#343434"/>
</svg>
