<svg width="50" height="51" viewBox="0 0 50 51" fill="none" xmlns="http://www.w3.org/2000/svg">
<g clip-path="url(#clip0_1_494)">
<path d="M0 50.8265H1.53271V21.1206H17.1895V50.8265H18.7222V19.5879H0V50.8265Z" fill="#CA483A"/>
<path d="M33.5679 0.835938H14.0645V18.7917H15.5972V2.36865H32.0352V25.0573H28.1284V50.8266H29.6611V26.59H42.1924V50.8266H43.7252V25.0573H33.5679V0.835938Z" fill="#CA483A"/>
<path d="M16.3932 22.7136H2.32898V24.2463H16.3932V22.7136Z" fill="#CA483A"/>
<path d="M31.2384 3.96118H16.3926V5.49389H31.2384V3.96118Z" fill="#CA483A"/>
<path d="M5.43902 26.6057H3.90631V29.731H5.43902V26.6057Z" fill="#CA483A"/>
<path d="M10.1274 26.6055H8.59473V29.7308H10.1274V26.6055Z" fill="#CA483A"/>
<path d="M14.8149 26.6055H13.2822V29.7308H14.8149V26.6055Z" fill="#CA483A"/>
<path d="M5.43902 32.856H3.90631V35.9813H5.43902V32.856Z" fill="#CA483A"/>
<path d="M10.1274 32.856H8.59473V35.9813H10.1274V32.856Z" fill="#CA483A"/>
<path d="M14.8149 32.856H13.2822V35.9813H14.8149V32.856Z" fill="#CA483A"/>
<path d="M5.43902 39.1064H3.90631V42.2317H5.43902V39.1064Z" fill="#CA483A"/>
<path d="M10.1274 39.1064H8.59473V42.2317H10.1274V39.1064Z" fill="#CA483A"/>
<path d="M14.8149 39.1064H13.2822V42.2317H14.8149V39.1064Z" fill="#CA483A"/>
<path d="M5.43902 45.3569H3.90631V48.4822H5.43902V45.3569Z" fill="#CA483A"/>
<path d="M10.1274 45.3569H8.59473V48.4822H10.1274V45.3569Z" fill="#CA483A"/>
<path d="M14.8149 45.3569H13.2822V48.4822H14.8149V45.3569Z" fill="#CA483A"/>
<path d="M30.4421 7.08667H17.1895V12.5261H30.4422V7.08667H30.4421ZM28.9094 10.9933H18.7222V8.61948H28.9095V10.9933H28.9094Z" fill="#CA483A"/>
<path d="M18.7222 14.1038H17.1895V17.229H18.7222V14.1038Z" fill="#CA483A"/>
<path d="M22.6294 14.1038H21.0967V17.229H22.6294V14.1038Z" fill="#CA483A"/>
<path d="M26.5354 14.1038H25.0027V17.229H26.5354V14.1038Z" fill="#CA483A"/>
<path d="M30.4417 14.1038H28.909V17.229H30.4417V14.1038Z" fill="#CA483A"/>
<path d="M22.6294 19.5725H21.0967V22.6978H22.6294V19.5725Z" fill="#CA483A"/>
<path d="M26.5354 19.5725H25.0027V22.6978H26.5354V19.5725Z" fill="#CA483A"/>
<path d="M22.6294 25.0422H21.0967V28.1676H22.6294V25.0422Z" fill="#CA483A"/>
<path d="M26.5354 25.0422H25.0027V28.1676H26.5354V25.0422Z" fill="#CA483A"/>
<path d="M22.6294 30.512H21.0967V33.6373H22.6294V30.512Z" fill="#CA483A"/>
<path d="M26.5354 30.512H25.0027V33.6373H26.5354V30.512Z" fill="#CA483A"/>
<path d="M22.6294 35.9807H21.0967V39.106H22.6294V35.9807Z" fill="#CA483A"/>
<path d="M26.5354 35.9807H25.0027V39.106H26.5354V35.9807Z" fill="#CA483A"/>
<path d="M22.6294 41.4504H21.0967V44.5757H22.6294V41.4504Z" fill="#CA483A"/>
<path d="M26.5354 41.4504H25.0027V44.5757H26.5354V41.4504Z" fill="#CA483A"/>
<path d="M22.6294 46.9202H21.0967V50.0455H22.6294V46.9202Z" fill="#CA483A"/>
<path d="M26.5354 46.9202H25.0027V50.0455H26.5354V46.9202Z" fill="#CA483A"/>
<path d="M30.4417 19.5725H28.909V22.6978H30.4417V19.5725Z" fill="#CA483A"/>
<path d="M41.3955 28.1833H30.4571V29.7161H41.3955V28.1833Z" fill="#CA483A"/>
<path d="M33.5679 31.2935H32.0352V50.8263H33.5679V31.2935Z" fill="#CA483A"/>
<path d="M36.6929 31.2935H35.1602V50.8263H36.6929V31.2935Z" fill="#CA483A"/>
<path d="M39.8179 31.2937H38.2852V50.8266H39.8179V31.2937Z" fill="#CA483A"/>
<path d="M49.9747 3.89946L46.0635 7.07729L46.069 6.29545L44.5362 6.28461L44.522 8.32963L42.9436 9.61205V3.16479H41.4109V10.8575L39.8183 12.1515V7.85297H38.2856V13.397L35.9415 15.3016V24.2611H37.4742V17.2141H42.1922V18.7768H48.4501L48.4673 50.827L50 50.8262L49.9747 3.89946ZM42.1921 15.6813H37.9046L48.4438 7.1183L48.4476 14.1186H42.1923V15.6813H42.1921ZM43.7249 17.2439V15.6513H48.4484L48.4492 17.2439H43.7249Z" fill="#CA483A"/>
<path d="M46.85 25.824H45.3173V28.9493H46.85V25.824Z" fill="#CA483A"/>
<path d="M46.85 31.2937H45.3173V34.419H46.85V31.2937Z" fill="#CA483A"/>
<path d="M46.85 36.7625H45.3173V39.8877H46.85V36.7625Z" fill="#CA483A"/>
<path d="M46.85 42.2322H45.3173V45.3576H46.85V42.2322Z" fill="#CA483A"/>
<path d="M46.85 47.7007H45.3173V50.826H46.85V47.7007Z" fill="#CA483A"/>
<path d="M46.85 20.3542H45.3173V23.4796H46.85V20.3542Z" fill="#CA483A"/>
<path d="M43.7253 20.3542H42.1926V23.4796H43.7253V20.3542Z" fill="#CA483A"/>
<path d="M40.5991 20.3542H39.0664V23.4796H40.5991V20.3542Z" fill="#CA483A"/>
</g>
<defs>
<clipPath id="clip0_1_494">
<rect width="50" height="50" fill="white" transform="translate(0 0.831543)"/>
</clipPath>
</defs>
</svg>
