<svg width="18" height="18" viewBox="0 0 18 18" fill="none" xmlns="http://www.w3.org/2000/svg">
<path d="M13.437 4.4775C14.1526 5.2122 14.6741 6.11339 14.9546 7.09987H16.875V10.476H14.9546C14.6745 11.4633 14.1529 12.3653 13.437 13.1006L14.3989 14.7656L11.4761 16.4531L10.5165 14.7881C9.52145 15.0391 8.47967 15.0391 7.48462 14.7881L6.52387 16.4531L3.60113 14.7656L4.563 13.1006C3.84711 12.3653 3.32555 11.4633 3.04537 10.476H1.125V7.101H3.04537C3.32555 6.11372 3.84711 5.21171 4.563 4.47638L3.6 2.8125L6.52163 1.125H6.525L7.48575 2.78775C8.48079 2.53679 9.52258 2.53679 10.5176 2.78775L11.475 1.125H11.4772L14.4 2.8125L13.4381 4.4775H13.437ZM12.375 8.7885C12.375 7.89339 12.0194 7.03495 11.3865 6.40201C10.7536 5.76908 9.89511 5.4135 9 5.4135C8.10489 5.4135 7.24645 5.76908 6.61351 6.40201C5.98058 7.03495 5.625 7.89339 5.625 8.7885C5.625 9.68361 5.98058 10.542 6.61351 11.175C7.24645 11.8079 8.10489 12.1635 9 12.1635C9.89511 12.1635 10.7536 11.8079 11.3865 11.175C12.0194 10.542 12.375 9.68361 12.375 8.7885Z" fill="white"/>
</svg>
