<svg width="50" height="51" viewBox="0 0 50 51" fill="none" xmlns="http://www.w3.org/2000/svg">
<path d="M48.6644 30.2413C48.6644 29.3824 48.4787 28.5559 48.1221 27.8088C49.2973 26.8222 50 25.2899 50 23.6267C50 20.7211 47.852 18.3573 45.2117 18.3573H32.2467C33.3633 15.2149 33.9718 11.401 33.9718 7.45789C33.9718 4.95751 32.1233 2.92334 29.8513 2.92334C27.5792 2.92334 25.7309 4.95751 25.7309 7.45789C25.7309 16.3951 20.0656 23.0827 11.6337 24.0988C11.5759 24.1058 11.5205 24.12 11.4677 24.1397C10.9133 23.5887 10.1792 23.2524 9.375 23.2524H3.125C1.40186 23.2524 0 24.7951 0 26.6914V43.0267C0 44.923 1.40186 46.4657 3.125 46.4657H9.375C10.3284 46.4657 11.1829 45.9928 11.7566 45.2497C13.756 45.5707 15.052 46.2743 16.3043 46.9565C17.9141 47.8332 19.5787 48.74 22.5051 48.74H41.2047C43.845 48.74 45.993 46.3761 45.993 43.4705C45.993 42.6117 45.8073 41.7851 45.4507 41.038C46.6259 40.0514 47.3286 38.5191 47.3286 36.8559C47.3286 35.9971 47.143 35.1705 46.7863 34.4234C47.9615 33.4368 48.6644 31.9044 48.6644 30.2413ZM45.4649 33.3251H44.1406C43.7092 33.3251 43.3594 33.7101 43.3594 34.1849C43.3594 34.6597 43.7092 35.0446 44.1406 35.0446H45.3084C45.6073 35.5927 45.7661 36.2104 45.7661 36.8559C45.7661 38.1569 45.1255 39.338 44.09 39.9638H42.6693C42.2379 39.9638 41.8881 40.3488 41.8881 40.8236C41.8881 41.2984 42.2379 41.6833 42.6693 41.6833H43.9858C44.2762 42.2254 44.4305 42.8343 44.4305 43.4704C44.4305 45.4279 42.9834 47.0203 41.2047 47.0203H22.5051C19.9442 47.0203 18.5786 46.2766 16.9975 45.4153C15.7906 44.7579 14.4354 44.0224 12.4506 43.632C12.4824 43.4353 12.5 43.2332 12.5 43.0267V30.0229C12.5 29.5481 12.1502 29.1632 11.7188 29.1632C11.2873 29.1632 10.9375 29.5481 10.9375 30.0229V43.0267C10.9375 43.9748 10.2365 44.7462 9.375 44.7462H3.125C2.26348 44.7462 1.5625 43.9748 1.5625 43.0267V26.6914C1.5625 25.7433 2.26348 24.9719 3.125 24.9719H9.375C10.2365 24.9719 10.9375 25.7433 10.9375 26.6914C10.9375 27.1662 11.2873 27.5512 11.7188 27.5512C12.1502 27.5512 12.5 27.1662 12.5 26.6914C12.5 26.3577 12.4558 26.0353 12.3748 25.7299C16.7477 25.0737 20.4624 23.0082 23.1447 19.7317C25.82 16.4638 27.2933 12.105 27.2933 7.45789C27.2933 5.90571 28.4407 4.64284 29.8512 4.64284C31.2616 4.64284 32.4092 5.9056 32.4092 7.45789C32.4092 11.682 31.6803 15.7291 30.3566 18.8539C30.1743 19.2842 30.3436 19.7958 30.7347 19.9964C30.862 20.0617 30.9971 20.0854 31.1277 20.0737C31.1474 20.0753 31.1669 20.077 31.1868 20.077H45.2115C46.9902 20.077 48.4373 21.6695 48.4373 23.6269C48.4373 24.8948 47.8291 26.0492 46.8397 26.6865H45.3773C44.9459 26.6865 44.5961 27.0714 44.5961 27.5462C44.5961 28.021 44.9459 28.406 45.3773 28.406H46.6308C46.9383 28.96 47.1017 29.5864 47.1017 30.2414C47.1019 31.5259 46.4772 32.6933 45.4649 33.3251Z" fill="#CA483A"/>
<path d="M41.2484 33.3252H40.4159C39.9844 33.3252 39.6346 33.7101 39.6346 34.1849C39.6346 34.6597 39.9844 35.0447 40.4159 35.0447H41.2484C41.6799 35.0447 42.0297 34.6597 42.0297 34.1849C42.0297 33.7101 41.6799 33.3252 41.2484 33.3252Z" fill="#CA483A"/>
<path d="M42.6693 26.6863H41.8368C41.4053 26.6863 41.0555 27.0712 41.0555 27.546C41.0555 28.0208 41.4053 28.4058 41.8368 28.4058H42.6693C43.1008 28.4058 43.4506 28.0208 43.4506 27.546C43.4506 27.0712 43.1008 26.6863 42.6693 26.6863Z" fill="#CA483A"/>
<path d="M39.8274 39.9639H38.9949C38.5634 39.9639 38.2136 40.3488 38.2136 40.8236C38.2136 41.2984 38.5634 41.6834 38.9949 41.6834H39.8274C40.2588 41.6834 40.6086 41.2984 40.6086 40.8236C40.6086 40.3488 40.2589 39.9639 39.8274 39.9639Z" fill="#CA483A"/>
<path d="M7.8125 26.6914C6.95098 26.6914 6.25 27.4628 6.25 28.4109C6.25 29.359 6.95098 30.1304 7.8125 30.1304C8.67402 30.1304 9.375 29.359 9.375 28.4109C9.375 27.4628 8.67402 26.6914 7.8125 26.6914Z" fill="#CA483A"/>
</svg>
