<svg width="18" height="18" viewBox="0 0 18 18" fill="none" xmlns="http://www.w3.org/2000/svg">
<path d="M16 4L8.94118 11L6 8.08333" stroke="#CA483A" stroke-width="2" stroke-miterlimit="10"/>
<path d="M15.6731 8.05769C15.7885 8.51923 15.8462 8.98077 15.8462 9.5C15.8462 13.0192 13.0192 15.8462 9.5 15.8462C5.98077 15.8462 3.15385 13.0192 3.15385 9.5C3.15385 5.98077 5.98077 3.15385 9.5 3.15385C11.2308 3.15385 12.7885 3.84615 13.8846 4.94231L14.6923 4.13462C13.3654 2.80769 11.5192 2 9.5 2C5.34615 2 2 5.34615 2 9.5C2 13.6538 5.34615 17 9.5 17C13.6538 17 17 13.6538 17 9.5C17 8.69231 16.8846 7.88461 16.5962 7.13461L15.6731 8.05769Z" fill="#CA483A"/>
</svg>
