<svg width="50" height="51" viewBox="0 0 50 51" fill="none" xmlns="http://www.w3.org/2000/svg">
<g clip-path="url(#clip0_1_483)">
<path fill-rule="evenodd" clip-rule="evenodd" d="M19.3427 31.0472L16.8861 31.5208C10.115 32.8261 5.1853 38.7888 5.1853 45.7116V48.7297C5.1853 50.9914 7.02241 52.8315 9.2804 52.8315H42.3038C42.3395 52.8315 42.3749 52.8311 42.4103 52.8301C44.6503 52.8089 46.4661 50.9772 46.4661 48.7286V45.7106C46.4661 38.7879 41.5365 32.8253 34.7654 31.5201L32.3087 31.0465C31.5676 30.9037 31.0295 30.2514 31.0295 29.4954V28.5711C31.5663 28.2418 32.0837 27.8589 32.5803 27.4217C34.3426 25.8701 35.4312 23.6696 35.6512 21.2189C36.9384 21.1746 37.9694 20.1002 37.9639 18.7906L37.9562 16.9311C37.9538 16.3548 37.7468 15.8029 37.38 15.3699V13.091C37.38 12.9807 37.38 12.7778 37.38 12.7778V10.8341C37.38 10.4855 37.3128 9.89594 37.3128 9.89594C37.3128 9.89594 37.2681 9.58811 37.2455 9.47479C36.7258 6.8777 34.7317 4.78244 32.1653 4.13676L28.0549 3.1026C27.3259 2.91916 26.5756 2.82883 25.8257 2.83161C25.0758 2.82883 24.3255 2.91916 23.5966 3.10261L19.4861 4.13679C16.9196 4.78248 14.9256 6.87779 14.4059 9.47495L14.2715 10.8339V15.3702C13.9045 15.8032 13.6976 16.3551 13.6952 16.9315L13.6875 18.7909C13.682 20.1006 14.713 21.175 16.0003 21.2194C16.2201 23.6701 17.3087 25.8707 19.0711 27.4223C19.5677 27.8595 20.0852 28.2424 20.6218 28.5718V29.4961C20.6218 30.252 20.0838 30.9044 19.3427 31.0472ZM15.8194 14.6607V10.8339C15.8194 8.34425 17.5032 6.18182 19.914 5.5752L24.0244 4.54105C24.6124 4.39312 25.2169 4.31767 25.8218 4.31467C26.4292 4.31706 27.0365 4.39251 27.627 4.54107L31.7375 5.57526C34.1482 6.18189 35.8319 8.34438 35.8319 10.8341V14.6605C32.4268 13.7078 29.0615 13.2393 25.6954 13.255C22.4164 13.2641 19.1367 13.7327 15.8194 14.6607ZM16.6352 33.1071C15.929 33.2781 15.2474 33.5062 14.595 33.7857V42.0567C15.0256 41.8228 15.5184 41.6898 16.0416 41.6898H16.2184C16.2421 41.6892 16.2658 41.6889 16.2896 41.6889H16.6352V33.1071ZM12.8575 44.761V34.6922C9.40272 36.8439 7.07562 40.5608 6.76855 44.761H12.8575ZM25.6831 14.739C22.64 14.7548 19.5964 15.1827 16.52 16.0225C16.6025 16.1035 16.6865 16.1894 16.7728 16.2776C17.4046 16.9236 18.1634 17.6993 19.4157 17.6983C19.5749 17.6945 19.7421 17.6783 19.9177 17.6479C21.8489 17.3143 23.7535 17.1437 25.6579 17.136C25.725 17.1356 25.7922 17.1354 25.8594 17.1354C27.8084 17.1354 29.7571 17.3061 31.7335 17.6475C31.9204 17.6799 32.0975 17.6961 32.2657 17.6986C33.5001 17.6873 34.2518 16.9188 34.8787 16.2779C34.965 16.1897 35.0488 16.1039 35.1314 16.0228C31.9588 15.1567 28.8213 14.7288 25.6831 14.739ZM34.1144 21.0233C33.9418 23.1191 33.026 24.996 31.5354 26.3082C29.8489 27.7933 27.8774 28.5438 25.904 28.5706C23.8786 28.5824 21.8472 27.8319 20.1159 26.3077C18.6254 24.9954 17.7096 23.1186 17.5369 21.0229C17.4767 20.293 16.8789 19.7403 16.1463 19.7371C15.6419 19.7349 15.2333 19.3131 15.2354 18.7967L15.2431 16.9373C15.2432 16.9285 15.2434 16.9197 15.2438 16.9109C15.3319 16.998 15.4235 17.0919 15.5195 17.1901C16.3231 18.0128 17.4253 19.1412 19.2254 19.1829C19.539 19.1938 19.8752 19.1716 20.237 19.1091C22.0574 18.7946 23.8535 18.6315 25.6486 18.6197C27.5618 18.6111 29.4742 18.7743 31.4144 19.1095C31.8014 19.1764 32.159 19.1971 32.4912 19.1806C34.2528 19.1134 35.3381 18.0024 36.1319 17.1897C36.2278 17.0915 36.3195 16.9977 36.4075 16.9106C36.408 16.9196 36.4083 16.9286 36.4083 16.9376L36.416 18.7971C36.4181 19.3135 36.0095 19.7353 35.5051 19.7375C34.7725 19.7406 34.1746 20.2935 34.1144 21.0233ZM22.1692 29.3492C22.1692 29.3543 22.1694 29.3601 22.1695 29.3666C22.1739 29.6315 22.1959 30.9772 20.9929 31.9115L22.4038 33.0636C23.4001 33.8773 24.6105 34.3099 25.8343 34.3609C27.0523 34.3066 28.2559 33.8741 29.2475 33.0644L30.6584 31.9121C29.4555 30.9779 29.4776 29.6321 29.4819 29.3672C29.4821 29.3602 29.4822 29.354 29.4822 29.3485C28.305 29.8194 27.108 30.0564 25.9142 30.0635C24.6617 30.0799 23.4046 29.8434 22.1692 29.3492ZM32.6504 32.6364L33.2785 32.7576V41.6889H18.3729V32.7569L18.9996 32.636L21.0017 34.2471C22.4135 35.3833 24.1356 35.9147 25.8369 35.8526C27.5309 35.9093 29.244 35.3776 30.6496 34.2464L32.6504 32.6364ZM39.3211 46.2453L39.3921 46.3426C39.7742 46.8679 39.9761 47.4891 39.9761 48.1389V51.3468H42.3709C42.3762 51.3468 42.3814 51.3468 42.3865 51.3468C43.7899 51.3029 44.9181 50.1457 44.9181 48.7296V46.2453H39.3211ZM37.1007 33.8054C36.4482 33.526 35.7224 33.2788 35.0162 33.1078V41.6889H35.6098C36.1331 41.6889 36.6701 41.8302 37.1007 42.064V33.8054ZM44.8828 44.761C44.5754 40.5611 42.2484 36.8446 38.794 34.6929V44.761H44.8828ZM38.4282 51.347V48.22C38.4282 47.6145 38.1147 47.2595 37.8519 46.9616C37.7671 46.8657 37.6878 46.7758 37.6258 46.6853C37.1706 46.135 36.9256 45.4375 36.9256 44.7396C36.9256 43.8758 36.224 43.1731 35.3617 43.1731H16.2348C15.3977 43.2022 14.7257 43.8932 14.7257 44.7386C14.7257 45.4365 14.4808 46.134 14.0256 46.6843C13.9636 46.7748 13.8842 46.8647 13.7995 46.9606C13.5366 47.2585 13.2232 47.6135 13.2232 48.219V51.347H38.4282ZM11.6753 51.347V48.1399C11.6753 47.4901 11.8773 46.8691 12.2594 46.3437L12.331 46.2453H6.73336V48.7284C6.73336 50.1723 7.90612 51.347 9.34759 51.347H11.6753Z" fill="#CA483A"/>
<path d="M28.6499 6.24777C28.706 6.28447 28.7606 6.32387 28.8135 6.3659L27.0386 7.47812C26.6921 7.69522 26.5873 8.15207 26.8043 8.49855C27.0214 8.84503 27.4783 8.94988 27.8248 8.73279L29.5996 7.62058C29.7993 8.51342 29.4304 9.47396 28.611 9.9874C27.8541 10.4617 26.9215 10.4238 26.219 9.96674L22.9593 12.0094C22.5262 12.2807 21.9551 12.1496 21.6837 11.7166C21.4421 11.331 21.5195 10.8362 21.8449 10.5407C21.885 10.5042 21.9289 10.4708 21.9765 10.441L25.2301 8.40224C25.1178 7.56532 25.4902 6.70102 26.2523 6.22343C26.8874 5.82552 27.646 5.78813 28.2888 6.05632C28.4141 6.10864 28.5351 6.17257 28.6499 6.24777Z" fill="#CA483A"/>
</g>
<defs>
<clipPath id="clip0_1_483">
<rect width="50" height="50" fill="white" transform="translate(0 0.831543)"/>
</clipPath>
</defs>
</svg>
