<svg width="60" height="48" viewBox="0 0 60 48" fill="none" xmlns="http://www.w3.org/2000/svg">
<g clip-path="url(#clip0_2_17111)">
<path d="M24.5455 11.6883L30.3896 0L36.2338 11.6883L42.4675 8.57143L40.5195 24.1558L47.1429 17.9221L50.6494 23.3766L60 20.2597L54.5455 30.3896L60 33.5065L46.7533 43.6364V47.5325H14.026V43.6364L1.16883 33.5065L6.23377 30.3896L0 20.2597L10.9091 23.3766L13.2468 17.9221L20.2597 24.1558L18.7013 8.57143L24.5455 11.6883Z" fill="white"/>
<path d="M24.8985 13.7996L30.3896 3.11688L35.6977 13.7996L40.9091 10.9091L38.8094 27.1984L46.7533 20.3179L50.2597 25.3247L57.2727 22.5974L52.2078 30.3896L57.2727 33.5065L45.3988 42.8571V46.7532L43.6364 45.974V30.7792L41.738 30.8196V27.9226H39.9076V29.3711H38.8094V39.5107H38.0772L37.3451 31.906H34.0504V41.6835H32.403L31.1218 23.215H32.5861V21.7664H33.3182V21.4043H32.5861V20.3179H31.4878V19.5937H31.1218L30.7557 16.6967L30.3896 19.5937H30.0235V20.3179H28.9253V21.4043H28.1932V21.7664H28.9253V23.215H30.3896L29.2914 43.132H28.5592V37.3379H28.0101V27.9226H27.461V27.5605H26.7288V25.0256L24.5324 27.1984V37.7001H22.702V40.416H21.7868V43.313H20.5055V41.1403H18.4921V42.2267H17.1429V45.974L15.5635 46.7532V42.8571L3.8961 33.5065L8.18182 30.3896L3.11688 22.5974L11.6883 25.7143L13.6364 20.3179L21.8182 27.1984L20.2597 10.9091L24.8985 13.7996Z" fill="#CA483A"/>
</g>
<defs>
<clipPath id="clip0_2_17111">
<rect width="60" height="48" fill="white"/>
</clipPath>
</defs>
</svg>
