<svg width="146" height="91" viewBox="0 0 146 91" fill="none" xmlns="http://www.w3.org/2000/svg">
<g clip-path="url(#clip0_1_367)">
<path d="M8.08045 76.7595H5.54125L8.8803 68.8245H12.6129L13.1715 76.7595H10.6197L10.5689 75.5026H8.5756L8.08045 76.7595ZM10.3784 73.484V71.2622H10.2515L9.36275 73.484H10.3784ZM5.13498 76.7087L-0.0703764 76.1501H5.37621L5.13498 76.7087ZM5.65552 75.4772L0.450159 74.9186H5.89674L5.65552 75.4772ZM6.17605 74.2584L0.970695 73.6998H6.40458L6.17605 74.2584ZM6.68389 73.0396L1.49123 72.481H6.92512L6.68389 73.0396ZM7.20443 71.8208L2.01177 71.2622H7.43296L7.20443 71.8208ZM8.2328 69.3705L3.05284 68.8245H8.46133L8.2328 69.3705ZM7.71227 70.5893L2.5323 70.0433H7.9408L7.71227 70.5893ZM8.2328 69.3705L8.46133 68.8245H3.05284L8.2328 69.3705ZM20.8093 74.8424H19.235L18.9049 76.7595H16.4926L17.8892 68.8245H21.698C23.1369 68.8245 23.8563 69.4932 23.8563 70.8305C23.8563 71.4653 23.7674 72.0408 23.5897 72.5571C23.412 73.065 23.2131 73.4713 22.993 73.776C22.7814 74.0722 22.4852 74.3261 22.1043 74.5377C21.7319 74.7409 21.3002 74.8424 20.8093 74.8424ZM20.1491 72.8111C20.4369 72.8111 20.6527 72.7814 20.7966 72.7222C20.9489 72.6545 21.0463 72.5064 21.0886 72.2778C21.1986 71.6515 21.2536 71.3087 21.2536 71.2495C21.2536 71.0886 21.1902 70.9828 21.0632 70.9321C20.9362 70.8813 20.7458 70.8559 20.4919 70.8559H19.9333L19.5905 72.8111H20.1491ZM16.1118 76.7214L10.7287 76.1501H16.2133L16.1118 76.7214ZM16.5434 74.2711L11.1603 73.6998H16.645L16.5434 74.2711ZM16.9624 71.8335L11.592 71.2622H17.064L16.9624 71.8335ZM17.1782 70.6147L11.8078 70.0433H17.2798L17.1782 70.6147ZM16.3276 75.4899L10.9445 74.9186H16.4292L16.3276 75.4899ZM17.3941 69.3958L12.0237 68.8245H17.4956L17.3941 69.3958ZM16.7466 73.0523L11.3762 72.481H16.8481L16.7466 73.0523ZM30.5668 74.8424H28.9925L28.6624 76.7595H26.2502L27.6468 68.8245H31.4556C32.8944 68.8245 33.6139 69.4932 33.6139 70.8305C33.6139 71.4653 33.525 72.0408 33.3473 72.5571C33.1695 73.065 32.9706 73.4713 32.7506 73.776C32.539 74.0722 32.2427 74.3261 31.8618 74.5377C31.4894 74.7409 31.0578 74.8424 30.5668 74.8424ZM29.9067 72.8111C30.1944 72.8111 30.4103 72.7814 30.5542 72.7222C30.7065 72.6545 30.8038 72.5064 30.8462 72.2778C30.9562 71.6515 31.0112 71.3087 31.0112 71.2495C31.0112 71.0886 30.9477 70.9828 30.8208 70.9321C30.6938 70.8813 30.5034 70.8559 30.2494 70.8559H29.6908L29.348 72.8111H29.9067ZM25.8693 76.7214L20.4862 76.1501H25.9709L25.8693 76.7214ZM26.301 74.2711L20.9179 73.6998H26.4026L26.301 74.2711ZM26.72 71.8335L21.3496 71.2622H26.8215L26.72 71.8335ZM26.9358 70.6147L21.5654 70.0433H27.0374L26.9358 70.6147ZM26.0852 75.4899L20.7021 74.9186H26.1867L26.0852 75.4899ZM27.1516 69.3958L21.7812 68.8245H27.2532L27.1516 69.3958ZM26.5041 73.0523L21.1337 72.481H26.6057L26.5041 73.0523ZM40.8323 76.7595H36.0078L37.4043 68.8245H39.8166L38.7755 74.7282H41.1877L40.8323 76.7595ZM35.6269 76.7214L30.2438 76.1501H35.7285L35.6269 76.7214ZM36.0586 74.2711L30.6755 73.6998H36.1601L36.0586 74.2711ZM36.2744 73.0523L30.8913 72.481H36.376L36.2744 73.0523ZM36.4902 71.8335L31.1071 71.2622H36.5918L36.4902 71.8335ZM36.7061 70.6147L31.323 70.0433H36.7949L36.7061 70.6147ZM35.8427 75.4899L30.4596 74.9186H35.9443L35.8427 75.4899ZM36.9092 69.3958L31.5388 68.8245H37.0108L36.9092 69.3958ZM43.9056 76.7595L45.3021 68.8245H47.7144L46.3178 76.7595H43.9056ZM43.5247 76.7214L38.1416 76.1501H43.6263L43.5247 76.7214ZM43.9564 74.2711L38.5733 73.6998H44.0579L43.9564 74.2711ZM44.1722 73.0523L38.7891 72.481H44.2738L44.1722 73.0523ZM44.388 71.8335L39.0049 71.2622H44.4896L44.388 71.8335ZM44.6039 70.6147L39.2208 70.0433H44.6927L44.6039 70.6147ZM43.7405 75.4899L38.3574 74.9186H43.8421L43.7405 75.4899ZM44.807 69.3958L39.4366 68.8245H44.9086L44.807 69.3958ZM52.69 76.7595H50.1508L53.4899 68.8245H57.2225L57.7811 76.7595H55.2292L55.1784 75.5026H53.1852L52.69 76.7595ZM54.988 73.484V71.2622H54.861L53.9723 73.484H54.988ZM49.7445 76.7087L44.5392 76.1501H49.9858L49.7445 76.7087ZM50.2651 75.4772L45.0597 74.9186H50.5063L50.2651 75.4772ZM50.7856 74.2584L45.5803 73.6998H51.0141L50.7856 74.2584ZM51.2935 73.0396L46.1008 72.481H51.5347L51.2935 73.0396ZM51.814 71.8208L46.6213 71.2622H52.0425L51.814 71.8208ZM52.8424 69.3705L47.6624 68.8245H53.0709L52.8424 69.3705ZM52.3218 70.5893L47.1419 70.0433H52.5504L52.3218 70.5893ZM52.8424 69.3705L53.0709 68.8245H47.6624L52.8424 69.3705ZM64.2381 73.941C64.2043 73.8818 64.1873 73.8014 64.1873 73.6998C64.1873 73.5898 64.1958 73.467 64.2127 73.3316H64.1112L63.5144 76.7595H61.1022L62.4988 68.8245H64.7713L66.0663 71.643C66.0917 71.7023 66.1044 71.7869 66.1044 71.897C66.1044 71.9985 66.096 72.117 66.079 72.2524H66.1806L66.79 68.8245H69.2022L67.8057 76.7595H65.5331L64.2381 73.941ZM60.7213 76.7214L55.3382 76.1501H60.8229L60.7213 76.7214ZM61.153 74.2711L55.7699 73.6998H61.2546L61.153 74.2711ZM61.3688 73.0523L55.9857 72.481H61.4704L61.3688 73.0523ZM61.5846 71.8335L56.2015 71.2622H61.6862L61.5846 71.8335ZM61.8005 70.6147L56.4174 70.0433H61.8894L61.8005 70.6147ZM60.9372 75.4899L55.5541 74.9186H61.0387L60.9372 75.4899ZM62.0036 69.3958L56.6332 68.8245H62.1052L62.0036 69.3958ZM71.7489 72.7349C71.732 72.8026 71.715 72.8957 71.6981 73.0142L66.7086 72.481H71.787L71.7489 72.7349ZM71.6092 73.6998C71.5838 73.8945 71.5711 74.0722 71.5711 74.233L66.5689 73.6998H71.6092ZM72.0917 71.2622L71.9393 71.7827L67.0133 71.2622H72.0917ZM71.5838 74.9186C71.6177 75.1556 71.6473 75.3333 71.6727 75.4518L66.734 74.9186H71.5838ZM72.6122 70.0433C72.4937 70.2634 72.4091 70.4327 72.3583 70.5512L67.61 70.0433H72.6122ZM71.9647 76.1501C72.0748 76.3448 72.2017 76.5014 72.3456 76.6199L67.9528 76.1501H71.9647ZM73.8183 68.8245C73.5729 68.9769 73.3824 69.1165 73.247 69.2435L69.362 68.8245H73.8183ZM74.9356 76.95C73.8691 76.95 73.1031 76.7426 72.6376 76.3279C72.1806 75.9131 71.952 75.2741 71.952 74.4108C71.952 74.0468 72.0113 73.5093 72.1298 72.7984C72.3837 71.3426 72.8196 70.2846 73.4375 69.6244C74.0638 68.9642 75.0498 68.6341 76.3956 68.6341C76.7088 68.6341 77.0643 68.6679 77.4621 68.7357C77.8684 68.7949 78.1646 68.8711 78.3508 68.9642L77.6398 70.9067C77.1405 70.7882 76.6707 70.7289 76.2306 70.7289C75.7989 70.7289 75.49 70.7712 75.3038 70.8559C75.1176 70.9405 75.0033 71.1098 74.961 71.3637L74.377 74.6901C74.6817 74.7578 74.9948 74.7916 75.3165 74.7916C76.002 74.7916 76.6284 74.6901 77.1955 74.4869L76.9923 76.6199C76.4506 76.8399 75.7651 76.95 74.9356 76.95ZM85.9128 73.7633H83.5005L83.3355 74.7282H86.2936L85.9381 76.7595H80.5677L81.9643 68.8245H87.2712L86.611 70.8559H84.0084L83.8306 71.9223H86.2429L85.9128 73.7633ZM80.1869 76.7214L74.8038 76.1501H80.2884L80.1869 76.7214ZM80.6185 74.2711L75.2354 73.6998H80.7201L80.6185 74.2711ZM80.8344 73.0523L75.4513 72.481H80.9359L80.8344 73.0523ZM81.0502 71.8335L75.6671 71.2622H81.1518L81.0502 71.8335ZM81.266 70.6147L75.8829 70.0433H81.3549L81.266 70.6147ZM80.4027 75.4899L75.0196 74.9186H80.5043L80.4027 75.4899ZM81.4692 69.3958L76.0988 68.8245H81.5707L81.4692 69.3958ZM97.5268 68.8245C98.9742 68.8245 99.6978 69.472 99.6978 70.767C99.6978 71.3002 99.6174 71.8081 99.4566 72.2905C99.1604 73.2046 98.6948 73.8141 98.06 74.1188L98.898 76.7595H96.2445L95.6605 74.3981H95.14L94.7337 76.7595H92.3215L93.718 68.8245H97.5268ZM96.0414 72.4429C96.3292 72.4429 96.545 72.4133 96.6889 72.354C96.8412 72.2863 96.9428 72.1043 96.9936 71.8081C97.0528 71.5034 97.0825 71.3172 97.0825 71.2495C97.0825 71.0802 97.0147 70.9744 96.8793 70.9321C96.7524 70.8813 96.5408 70.8559 96.2445 70.8559H95.7621L95.4828 72.4429H96.0414ZM91.9406 76.7214L86.5575 76.1501H92.0421L91.9406 76.7214ZM92.3722 74.2711L86.9891 73.6998H92.4738L92.3722 74.2711ZM92.7912 71.8335L87.4208 71.2622H92.8928L92.7912 71.8335ZM93.007 70.6147L87.6366 70.0433H93.1086L93.007 70.6147ZM92.1564 75.4899L86.7733 74.9186H92.258L92.1564 75.4899ZM93.2229 69.3958L87.8525 68.8245H93.3244L93.2229 69.3958ZM92.5754 73.0523L87.205 72.481H92.6769L92.5754 73.0523ZM107.759 73.7633H105.347L105.182 74.7282H108.14L107.784 76.7595H102.414L103.81 68.8245H109.117L108.457 70.8559H105.854L105.677 71.9223H108.089L107.759 73.7633ZM102.033 76.7214L96.6498 76.1501H102.134L102.033 76.7214ZM102.465 74.2711L97.0815 73.6998H102.566L102.465 74.2711ZM102.68 73.0523L97.2973 72.481H102.782L102.68 73.0523ZM102.896 71.8335L97.5131 71.2622H102.998L102.896 71.8335ZM103.112 70.6147L97.729 70.0433H103.201L103.112 70.6147ZM102.249 75.4899L96.8656 74.9186H102.35L102.249 75.4899ZM103.315 69.3958L97.9448 68.8245H103.417L103.315 69.3958ZM115.942 74.8424H114.368L114.038 76.7595H111.626L113.022 68.8245H116.831C118.27 68.8245 118.989 69.4932 118.989 70.8305C118.989 71.4653 118.901 72.0408 118.723 72.5571C118.545 73.065 118.346 73.4713 118.126 73.776C117.915 74.0722 117.618 74.3261 117.237 74.5377C116.865 74.7409 116.433 74.8424 115.942 74.8424ZM115.282 72.8111C115.57 72.8111 115.786 72.7814 115.93 72.7222C116.082 72.6545 116.179 72.5064 116.222 72.2778C116.332 71.6515 116.387 71.3087 116.387 71.2495C116.387 71.0886 116.323 70.9828 116.196 70.9321C116.069 70.8813 115.879 70.8559 115.625 70.8559H115.066L114.724 72.8111H115.282ZM111.245 76.7214L105.862 76.1501H111.347L111.245 76.7214ZM111.677 74.2711L106.294 73.6998H111.778L111.677 74.2711ZM112.096 71.8335L106.725 71.2622H112.197L112.096 71.8335ZM112.311 70.6147L106.941 70.0433H112.413L112.311 70.6147ZM111.461 75.4899L106.078 74.9186H111.562L111.461 75.4899ZM112.527 69.3958L107.157 68.8245H112.629L112.527 69.3958ZM111.88 73.0523L106.509 72.481H111.981L111.88 73.0523ZM123.584 76.7595H121.045L124.384 68.8245H128.117L128.675 76.7595H126.123L126.073 75.5026H124.079L123.584 76.7595ZM125.882 73.484V71.2622H125.755L124.867 73.484H125.882ZM120.639 76.7087L115.433 76.1501H120.88L120.639 76.7087ZM121.159 75.4772L115.954 74.9186H121.401L121.159 75.4772ZM121.68 74.2584L116.474 73.6998H121.908L121.68 74.2584ZM122.188 73.0396L116.995 72.481H122.429L122.188 73.0396ZM122.708 71.8208L117.516 71.2622H122.937L122.708 71.8208ZM123.737 69.3705L118.557 68.8245H123.965L123.737 69.3705ZM123.216 70.5893L118.036 70.0433H123.445L123.216 70.5893ZM123.737 69.3705L123.965 68.8245H118.557L123.737 69.3705ZM131.996 76.7595L133.393 68.8245H135.805L134.409 76.7595H131.996ZM131.616 76.7214L126.232 76.1501H131.717L131.616 76.7214ZM132.047 74.2711L126.664 73.6998H132.149L132.047 74.2711ZM132.263 73.0523L126.88 72.481H132.365L132.263 73.0523ZM132.479 71.8335L127.096 71.2622H132.58L132.479 71.8335ZM132.695 70.6147L127.312 70.0433H132.784L132.695 70.6147ZM131.831 75.4899L126.448 74.9186H131.933L131.831 75.4899ZM132.898 69.3958L127.527 68.8245H132.999L132.898 69.3958ZM143.599 68.8245C145.047 68.8245 145.77 69.472 145.77 70.767C145.77 71.3002 145.69 71.8081 145.529 72.2905C145.233 73.2046 144.767 73.8141 144.133 74.1188L144.971 76.7595H142.317L141.733 74.3981H141.213L140.806 76.7595H138.394L139.791 68.8245H143.599ZM142.114 72.4429C142.402 72.4429 142.618 72.4133 142.761 72.354C142.914 72.2863 143.015 72.1043 143.066 71.8081C143.125 71.5034 143.155 71.3172 143.155 71.2495C143.155 71.0802 143.087 70.9744 142.952 70.9321C142.825 70.8813 142.613 70.8559 142.317 70.8559H141.835L141.555 72.4429H142.114ZM138.013 76.7214L132.63 76.1501H138.115L138.013 76.7214ZM138.445 74.2711L133.062 73.6998H138.546L138.445 74.2711ZM138.864 71.8335L133.493 71.2622H138.965L138.864 71.8335ZM139.08 70.6147L133.709 70.0433H139.181L139.08 70.6147ZM138.229 75.4899L132.846 74.9186H138.331L138.229 75.4899ZM139.295 69.3958L133.925 68.8245H139.397L139.295 69.3958ZM138.648 73.0523L133.278 72.481H138.75L138.648 73.0523Z" fill="#CA483A"/>
<path d="M34.3455 90.2129V88.4089H34.8955V83.4589H34.3455V81.6549H38.5255V83.4589H37.9755V88.4089H38.5255V90.2129H34.3455ZM45.3006 81.6549H48.9086V83.4589H48.3586V90.2129H45.2676L42.0446 85.2519V88.4089H42.5726V90.2129H38.9646V88.4089H39.5146V83.4589H38.9646V81.6549H42.9356L45.8286 86.0659V83.4589H45.3006V81.6549ZM60.8347 84.3169H58.9427V83.4589H58.2387V88.4089H59.0087V90.2129H54.3887V88.4089H55.1587V83.4589H54.4547V84.3169H52.5627V81.6549H60.8347V84.3169ZM65.3477 90.3669C64.0057 90.3669 62.968 90.0149 62.2347 89.3109C61.5087 88.6069 61.1457 87.4812 61.1457 85.9339C61.1457 84.3866 61.5087 83.2609 62.2347 82.5569C62.968 81.8529 64.0057 81.5009 65.3477 81.5009C66.6897 81.5009 67.7237 81.8529 68.4497 82.5569C69.183 83.2609 69.5497 84.3866 69.5497 85.9339C69.5497 87.4812 69.183 88.6069 68.4497 89.3109C67.7237 90.0149 66.6897 90.3669 65.3477 90.3669ZM65.3477 88.4089C65.597 88.4089 65.784 88.3429 65.9087 88.2109C66.0334 88.0789 66.0957 87.8736 66.0957 87.5949V84.2729C66.0957 83.9942 66.0334 83.7889 65.9087 83.6569C65.784 83.5249 65.597 83.4589 65.3477 83.4589C65.0984 83.4589 64.9114 83.5249 64.7867 83.6569C64.662 83.7889 64.5997 83.9942 64.5997 84.2729V87.5949C64.5997 87.8809 64.662 88.0899 64.7867 88.2219C64.9114 88.3466 65.0984 88.4089 65.3477 88.4089ZM69.9236 88.4089H70.4736V83.4589H69.9236V81.6549H74.9726C75.9186 81.6549 76.6409 81.8492 77.1396 82.2379C77.6383 82.6266 77.8876 83.2572 77.8876 84.1299C77.8876 84.6212 77.7886 85.0466 77.5906 85.4059C77.3926 85.7652 77.1103 86.0146 76.7436 86.1539L76.7546 86.2639C77.4586 86.3739 77.8106 86.8066 77.8106 87.5619V88.4089H78.3276V90.2129H74.8406V87.6279C74.8406 87.3419 74.7966 87.1256 74.7086 86.9789C74.6279 86.8322 74.4959 86.7332 74.3126 86.6819C74.1366 86.6306 73.8836 86.6049 73.5536 86.6049V88.4089H74.2796V90.2129H69.9236V88.4089ZM74.1476 85.2629C74.3603 85.2629 74.5179 85.2079 74.6206 85.0979C74.7306 84.9806 74.7856 84.8009 74.7856 84.5589V84.1629C74.7856 83.9209 74.7306 83.7449 74.6206 83.6349C74.5179 83.5176 74.3603 83.4589 74.1476 83.4589H73.5536V85.2629H74.1476ZM82.8575 90.3669C81.5155 90.3669 80.4778 90.0149 79.7445 89.3109C79.0185 88.6069 78.6555 87.4812 78.6555 85.9339C78.6555 84.3866 79.0185 83.2609 79.7445 82.5569C80.4778 81.8529 81.5155 81.5009 82.8575 81.5009C84.1995 81.5009 85.2335 81.8529 85.9595 82.5569C86.6928 83.2609 87.0595 84.3866 87.0595 85.9339C87.0595 87.4812 86.6928 88.6069 85.9595 89.3109C85.2335 90.0149 84.1995 90.3669 82.8575 90.3669ZM82.8575 88.4089C83.1068 88.4089 83.2938 88.3429 83.4185 88.2109C83.5431 88.0789 83.6055 87.8736 83.6055 87.5949V84.2729C83.6055 83.9942 83.5431 83.7889 83.4185 83.6569C83.2938 83.5249 83.1068 83.4589 82.8575 83.4589C82.6081 83.4589 82.4211 83.5249 82.2965 83.6569C82.1718 83.7889 82.1095 83.9942 82.1095 84.2729V87.5949C82.1095 87.8809 82.1718 88.0899 82.2965 88.2219C82.4211 88.3466 82.6081 88.4089 82.8575 88.4089ZM93.7694 81.6549H97.3774V83.4589H96.8274V90.2129H93.7364L90.5134 85.2519V88.4089H91.0414V90.2129H87.4334V88.4089H87.9834V83.4589H87.4334V81.6549H91.4044L94.2974 86.0659V83.4589H93.7694V81.6549ZM106.006 84.3169H104.114V83.4589H103.41V88.4089H104.18V90.2129H99.5596V88.4089H100.33V83.4589H99.6256V84.3169H97.7336V81.6549H106.006V84.3169ZM110.519 90.3669C109.177 90.3669 108.139 90.0149 107.406 89.3109C106.68 88.6069 106.317 87.4812 106.317 85.9339C106.317 84.3866 106.68 83.2609 107.406 82.5569C108.139 81.8529 109.177 81.5009 110.519 81.5009C111.861 81.5009 112.895 81.8529 113.621 82.5569C114.354 83.2609 114.721 84.3866 114.721 85.9339C114.721 87.4812 114.354 88.6069 113.621 89.3109C112.895 90.0149 111.861 90.3669 110.519 90.3669ZM110.519 88.4089C110.768 88.4089 110.955 88.3429 111.08 88.2109C111.204 88.0789 111.267 87.8736 111.267 87.5949V84.2729C111.267 83.9942 111.204 83.7889 111.08 83.6569C110.955 83.5249 110.768 83.4589 110.519 83.4589C110.269 83.4589 110.082 83.5249 109.958 83.6569C109.833 83.7889 109.771 83.9942 109.771 84.2729V87.5949C109.771 87.8809 109.833 88.0899 109.958 88.2219C110.082 88.3466 110.269 88.4089 110.519 88.4089Z" fill="#21201F"/>
<path d="M67.0492 15.7377L74.918 0L82.7869 15.7377L91.1803 11.541L88.5574 32.5246L97.4754 24.1311L102.197 31.4754L114.787 27.2787L107.443 40.918L114.787 45.1147L96.9508 58.7541V64H52.8852V58.7541L35.5738 45.1147L42.3934 40.918L34 27.2787L48.6885 31.4754L51.8361 24.1311L61.2787 32.5246L59.1803 11.541L67.0492 15.7377Z" fill="white"/>
<path d="M67.5245 18.5805L74.918 4.19672L82.0651 18.5805L89.082 14.6885L86.2548 36.6212L96.9508 27.357L101.672 34.0984L111.115 30.4262L104.295 40.918L111.115 45.1147L95.1271 57.7049V62.9508L92.7541 61.9016V41.4426L90.198 41.497V37.5963H87.7335V39.5467H86.2548V53.1991H85.269L84.2832 42.9598H79.8471V56.1246H77.629L75.9038 31.2577H77.8755V29.3074H78.8613V28.8198H77.8755V27.357H76.3967V26.3819H75.9038L75.4109 22.4812L74.918 26.3819H74.4251V27.357H72.9464V28.8198H71.9606V29.3074H72.9464V31.2577H74.918L73.4393 58.075H72.4535V50.2736H71.7142V37.5963H70.9748V37.1088H69.989V33.6957L67.0316 36.6212V50.7612H64.5671V54.4181H63.3348V58.3188H61.6096V55.3932H58.8987V56.856H57.082V61.9016L54.9554 62.9508V57.7049L39.2459 45.1147L45.0164 40.918L38.1967 30.4262L49.7377 34.6229L52.3607 27.357L63.3771 36.6212L61.2787 14.6885L67.5245 18.5805Z" fill="#CA483A"/>
</g>
<defs>
<clipPath id="clip0_1_367">
<rect width="146" height="91" fill="white"/>
</clipPath>
</defs>
</svg>
