<svg width="36" height="36" viewBox="0 0 36 36" fill="none" xmlns="http://www.w3.org/2000/svg">
<path fill-rule="evenodd" clip-rule="evenodd" d="M16.4189 2.09154C14.4163 2.40809 12.4887 3.63518 11.3205 5.33699C10.4792 6.56258 9.95034 8.35638 10.0251 9.73141C10.0596 10.3681 10.1725 10.7342 10.4464 11.0974C10.5379 11.2187 10.622 11.4572 10.651 11.6774C10.7705 12.5851 11.0671 13.8405 11.4025 14.8586C12.0035 16.6833 12.826 18.1922 13.7833 19.2259L14.2346 19.7134L13.2626 20.0373C11.351 20.6743 8.67828 21.7296 7.30284 22.3905C6.71478 22.6731 6.54828 22.7924 6.16582 23.2055C5.44456 23.9846 4.9145 25.1695 4.54473 26.8296C4.22839 28.2496 4.00007 30.9447 4 33.2589C3.99993 34.3848 4.00287 34.408 4.16745 34.5725L4.3349 34.74H17.6472H30.9595L31.1269 34.5725C31.292 34.4075 31.2944 34.3875 31.2934 33.2248C31.2892 28.1595 30.5675 24.7739 29.166 23.2444C28.9399 22.9976 28.6269 22.7208 28.4706 22.6291C27.6037 22.1211 24.0851 20.7155 21.625 19.8944L21.0651 19.7076L21.5138 19.2231C22.9446 17.6778 24.1199 14.9391 24.5769 12.0856C24.6649 11.5361 24.7379 11.2982 24.8899 11.0651C25.296 10.442 25.3799 9.71694 25.1904 8.46904C24.8778 6.41096 23.6688 4.48957 21.9392 3.30232C20.3976 2.24412 18.3268 1.78987 16.4189 2.09154ZM19.2507 3.27824C21.05 3.74647 22.6491 5.0315 23.4692 6.66835C23.7217 7.17228 24.0209 7.98633 23.9717 8.03553C23.9562 8.05109 23.5251 7.98654 23.0137 7.8921C19.4295 7.23014 15.8375 7.22987 12.2249 7.89128C11.7384 7.9804 11.33 8.0429 11.3174 8.03028C11.2728 7.98565 11.5851 7.14723 11.8249 6.66835C12.7304 4.85947 14.4666 3.5649 16.5105 3.17472C17.1959 3.04384 18.5461 3.09488 19.2507 3.27824ZM19.1484 8.53925C20.5636 8.62011 21.6815 8.75038 22.9118 8.97767C23.6624 9.11639 23.8413 9.1733 23.9879 9.31994C24.2537 9.58586 24.228 10.0433 23.9202 10.5252C23.3592 11.4035 22.9294 11.7021 22.219 11.7071C21.8489 11.7097 21.6625 11.6632 21.0931 11.4258C18.8228 10.4793 16.6071 10.4871 14.1671 11.4503C13.4636 11.728 13.3412 11.7563 12.9837 11.724C12.3892 11.6702 12.0397 11.4225 11.5166 10.6838C11.109 10.1084 11.0857 10.0547 11.1175 9.76771C11.1729 9.26849 11.3811 9.13727 12.3971 8.96109C14.8508 8.53557 16.8727 8.40919 19.1484 8.53925ZM19.2507 11.9737C19.7769 12.0899 20.4467 12.3162 21.1272 12.6076C21.5092 12.7712 21.6608 12.7975 22.219 12.7969C22.6726 12.7964 22.9441 12.7622 23.1231 12.6832C23.2639 12.621 23.379 12.5917 23.3788 12.6179C23.3787 12.6441 23.2702 13.076 23.1377 13.5777C22.2221 17.0454 20.4606 19.4242 18.459 19.8961C15.8096 20.5206 13.3347 18.0395 12.1566 13.5777C12.0242 13.076 11.9157 12.6458 11.9155 12.6216C11.9154 12.5973 12.1073 12.6385 12.3418 12.7129C12.9748 12.9139 13.6203 12.8565 14.409 12.529C15.7972 11.9525 16.53 11.8065 17.8519 11.8428C18.3585 11.8568 18.988 11.9157 19.2507 11.9737ZM15.7473 20.6777C16.275 20.917 17.0797 21.0927 17.6472 21.0927C18.2217 21.0927 19.0333 20.9172 19.539 20.6836L19.9638 20.4874L20.6823 20.728C21.0774 20.8603 21.3845 20.9948 21.3647 21.0268C21.2827 21.1594 20.2971 21.6451 19.7119 21.8411C18.4872 22.2514 16.996 22.2762 15.7707 21.9065C15.2406 21.7466 14.0846 21.2059 13.9652 21.062C13.9031 20.9871 14.0219 20.9239 14.5907 20.7295C14.977 20.5974 15.2964 20.4869 15.3007 20.484C15.3048 20.4811 15.5059 20.5682 15.7473 20.6777ZM13.1119 21.8C14.068 22.4983 15.2847 22.9965 16.47 23.1752C18.5254 23.485 20.6328 22.9687 22.2471 21.7598L22.6966 21.4231L23.9761 21.8981L25.2555 22.3731L25.273 28.0107L25.2905 33.6482H22.2877H19.2849V32.5704V31.4926L19.7942 31.1385C21.4957 29.9556 21.9648 27.6682 20.8593 25.9453C20.5409 25.4492 19.8623 24.8456 19.3353 24.5899C18.7882 24.3243 18.5833 24.3129 18.3606 24.5356C18.1939 24.7022 18.1931 24.7096 18.1931 26.0709V27.4387H17.6472H17.1013V26.0709C17.1013 24.7096 17.1005 24.7022 16.9338 24.5356C16.7116 24.3134 16.5074 24.3243 15.9569 24.588C15.4058 24.8519 14.5683 25.653 14.2837 26.1883C13.8681 26.97 13.7304 28.0144 13.9308 28.8647C14.1485 29.788 14.7355 30.6282 15.5338 31.1589L16.0095 31.4752V32.5617V33.6482H13.0071H10.0047V28.0237V22.3991L10.5677 22.1806C11.1066 21.9714 12.5381 21.4446 12.5871 21.4374C12.6 21.4355 12.8361 21.5986 13.1119 21.8ZM8.91294 28.2576V33.6482H7.00233H5.09171L5.09178 32.9488C5.09178 31.9462 5.21495 29.867 5.33327 28.8717C5.61781 26.4767 6.17394 24.7609 6.92406 23.9632C7.16534 23.7066 7.42881 23.5353 8.02587 23.247C8.45747 23.0386 8.83365 22.8678 8.86177 22.8675C8.88988 22.8672 8.91294 25.2927 8.91294 28.2576ZM27.3429 23.2934C28.1464 23.698 28.2078 23.7439 28.5427 24.1907C29.532 25.5099 30.0504 28.0299 30.1775 32.139L30.2242 33.6482H28.3028H26.3814V28.2576C26.3814 25.2927 26.4072 22.8669 26.4387 22.8669C26.4703 22.8669 26.8772 23.0588 27.3429 23.2934ZM16.2047 28.4002C16.3506 28.5182 16.4881 28.5305 17.6578 28.5305C19.3851 28.5305 19.2849 28.6228 19.2849 27.0324C19.2849 26.368 19.3118 25.8693 19.3478 25.8693C19.4698 25.8693 19.9184 26.4543 20.1172 26.8728C20.4897 27.6565 20.4417 28.6259 19.9925 29.3924C19.756 29.7959 19.2091 30.2837 18.7538 30.4971C18.4083 30.659 18.2817 30.6799 17.6472 30.6799C17.0127 30.6799 16.8861 30.659 16.5405 30.4971C16.0813 30.2818 15.5379 29.7951 15.296 29.3824C14.6863 28.342 14.8502 26.9715 15.6853 26.1282L15.9754 25.8352L16.0095 27.0526C16.0425 28.23 16.049 28.2743 16.2047 28.4002ZM18.1931 32.727V33.6482H17.6472H17.1013V32.727V31.8058H17.6472H18.1931V32.727Z" fill="#343434"/>
</svg>
