<svg width="36" height="36" viewBox="0 0 36 36" fill="none" xmlns="http://www.w3.org/2000/svg">
<g clip-path="url(#clip0_1_420)">
<path d="M12.5797 16.8427C12.8231 17.0859 13.2175 17.0859 13.4609 16.8426C13.7042 16.5992 13.7042 16.2047 13.4607 15.9614L12.9461 15.447C12.761 15.262 12.48 15.2123 12.2427 15.3228C11.505 15.6661 10.7418 15.8401 9.97431 15.8401C8.41178 15.8401 6.94009 15.16 5.92328 14.0127L10.0018 14.0107C10.2061 14.0106 10.3974 13.9103 10.5137 13.7423L12.5607 10.7863C12.7084 10.573 12.7085 10.2904 12.5608 10.0771L10.5149 7.11994C10.3985 6.95172 10.2071 6.85135 10.0025 6.85135L5.92421 6.85179C6.94008 5.70464 8.41059 5.0244 9.97182 5.02402C11.4167 5.02402 12.7751 5.58657 13.7968 6.60811C14.8178 7.62885 15.3798 8.98559 15.3798 10.4289L15.3798 10.4332C15.3795 10.9298 15.3806 12.0583 15.2879 12.392C15.2879 12.392 15.4513 12.5554 15.6101 12.7142L17.5429 14.6471C17.7862 14.8904 17.7381 14.9833 17.9815 14.74C18.1031 14.6183 18.164 14.4588 18.164 14.2994C18.164 14.14 18.1031 13.9805 17.9815 13.8589L16.3395 12.2169C16.4527 11.7592 16.6256 10.9724 16.6259 10.4342C16.6259 10.4323 16.6259 10.4289 16.6259 10.4289C16.6259 8.65295 15.9341 6.98306 14.6778 5.727C13.4207 4.4702 11.7495 3.77806 9.9717 3.77806C7.57709 3.77862 5.35655 5.07792 4.17657 7.16885C4.06772 7.36175 4.06941 7.59794 4.18112 7.78928C4.29283 7.98056 4.49769 8.09819 4.71924 8.09813L9.676 8.09763L11.2907 10.4316L9.67494 12.7647L4.71781 12.7671C4.49632 12.7672 4.29152 12.8849 4.17993 13.0762C4.06828 13.2675 4.06673 13.5037 4.17564 13.6966C5.35668 15.7873 7.57858 17.0861 9.97425 17.0861C10.7835 17.0861 11.5851 16.9316 12.3632 16.6261L12.5797 16.8427Z" fill="#343434"/>
<path d="M20.8531 18.4919L29.4964 27.1349C29.8214 27.4597 30.0004 27.8914 30.0007 28.3506L30.0007 28.3515C30.0007 28.8106 29.8217 29.2424 29.497 29.5672C29.172 29.8918 28.7396 30.0704 28.2795 30.0698C27.8208 30.0693 27.3901 29.8905 27.0661 29.5654L19.6313 22.1313C19.388 21.888 18.9935 21.888 18.7502 22.1313C18.5069 22.3745 18.5069 22.7691 18.7502 23.0124L26.1843 30.4457C26.7426 31.0059 27.4862 31.3149 28.2781 31.3159C29.0713 31.3168 29.8169 31.0088 30.3779 30.4485C30.9383 29.8881 31.2468 29.1434 31.2468 28.3515L31.2468 28.3499C31.2464 27.558 30.9375 26.8134 30.3774 26.2536L21.7342 17.6107C21.4909 17.3674 21.0964 17.3675 20.8531 17.6107C20.6098 17.8541 20.6098 18.2486 20.8531 18.4919Z" fill="#343434"/>
<path d="M27.5229 28.3617C27.523 28.5669 27.6032 28.7597 27.7462 28.902C28.0439 29.2015 28.5302 29.203 28.8302 28.9054L28.8325 28.9031C28.9814 28.7539 29.0559 28.558 29.0559 28.3618C29.0559 28.1652 28.981 27.9682 28.831 27.8179C28.5313 27.5197 28.045 27.5206 27.7479 27.8186C27.6028 27.9635 27.5229 28.1566 27.5229 28.3617Z" fill="#343434"/>
<path d="M24.3645 7.99082C24.3 8.05537 24.2505 8.13325 24.2193 8.21898L23.5715 10.0057L17.1174 16.4597L16.0743 15.4165C15.831 15.1732 15.4364 15.1732 15.1931 15.4165C15.0085 15.6012 14.9639 15.8729 15.0595 16.0996L5.29863 25.8616C4.7063 26.452 4.37958 27.2382 4.37858 28.0755L4.37858 28.0792C4.37858 28.9165 4.70418 29.7035 5.2957 30.2957C5.88866 30.8887 6.67668 31.2149 7.51468 31.2144C8.35199 31.214 9.13927 30.8875 9.73128 30.2951L19.493 20.533C19.7196 20.6286 19.9913 20.5841 20.1759 20.3994C20.4192 20.1561 20.4193 19.7616 20.1759 19.5183L19.133 18.4754L25.587 12.0214L27.3738 11.3735C27.4595 11.3424 27.5375 11.2928 27.6019 11.2283L31.2233 7.6069C31.3449 7.48522 31.4058 7.32578 31.4058 7.16635C31.4058 7.00691 31.3449 6.84741 31.2233 6.72579L28.867 4.3695C28.7501 4.25268 28.5917 4.18701 28.4264 4.18701C28.2612 4.18701 28.1027 4.25268 27.9859 4.3695L24.3645 7.99082ZM16.6768 17.7815C16.6781 17.7828 16.6795 17.7842 16.6808 17.7855L18.5796 19.6842L8.85005 29.4142C8.49311 29.7713 8.01866 29.9681 7.51405 29.9684C7.00914 29.9686 6.53425 29.772 6.17713 29.4148C5.82081 29.0581 5.62473 28.5839 5.62473 28.0792L5.62473 28.077C5.62529 27.5727 5.82193 27.0995 6.17906 26.7435L15.9085 17.0131L16.6728 17.7774C16.6741 17.7787 16.6754 17.7801 16.6768 17.7815ZM29.9016 7.16635L26.8188 10.2492L25.032 10.8971C24.9463 10.9282 24.8683 10.9777 24.8039 11.0422L18.2519 17.5942L17.9985 17.3408L24.5505 10.7889C24.615 10.7243 24.6645 10.6464 24.6957 10.5607L25.3435 8.77399L28.4264 5.69117L29.9016 7.16635Z" fill="#343434"/>
<path d="M7.06975 27.6399C6.82652 27.8832 6.82652 28.2777 7.06975 28.521C7.31305 28.7643 7.70757 28.7643 7.95093 28.521L16.5458 19.9261C16.6674 19.8044 16.7283 19.6449 16.7283 19.4855C16.7283 19.3261 16.6674 19.1666 16.5458 19.0449C16.3025 18.8016 15.908 18.8016 15.6647 19.0449L7.06975 27.6399Z" fill="#343434"/>
</g>
<defs>
<clipPath id="clip0_1_420">
<rect width="36" height="36" fill="white" transform="translate(0 36) rotate(-90)"/>
</clipPath>
</defs>
</svg>
