<svg width="36" height="36" viewBox="0 0 36 36" fill="none" xmlns="http://www.w3.org/2000/svg">
<path d="M34.4676 5H1.53244C1.2384 5 1.00007 5.23827 1.00007 5.53231V22.5677C1.00007 22.8618 1.2384 23.1001 1.53244 23.1001C1.82642 23.1001 2.06482 22.8619 2.06482 22.5677V6.06469H33.9353V24.5197H29.57C29.2759 24.5197 29.0376 24.758 29.0376 25.0521V29.4175H2.06476L2.06482 22.5677C2.06482 22.2737 1.82649 23.1001 1.53244 23.1001C1.23846 23.1001 1.00007 22.2736 1.00007 22.5677L1 29.9498C1 30.2439 1.23833 30.4822 1.53238 30.4822H29.57C29.7094 30.4822 29.8478 30.4249 29.9464 30.3264L34.8441 25.4286C34.9428 25.33 35 25.1917 35 25.0522V5.53231C35 5.23827 34.7617 5 34.4676 5ZM30.1023 28.6646V25.5844H33.1825L30.1023 28.6646Z" fill="#343434"/>
<path d="M19.5964 14.9195L18.6786 13.33V11.4948C18.6786 11.3045 18.5771 11.1289 18.4124 11.0338L16.8229 10.116L15.9052 8.52654C15.8101 8.36186 15.6344 8.26039 15.4441 8.26039H13.6088L12.0194 7.34272C11.8547 7.24763 11.6517 7.24763 11.487 7.34272L9.89749 8.26045H8.06216C7.8719 8.26045 7.69626 8.36199 7.6011 8.52661L6.68337 10.1161L5.09387 11.0338C4.92918 11.1289 4.82772 11.3046 4.82772 11.4948V13.3302L3.91018 14.9196C3.81509 15.0843 3.81509 15.2873 3.91018 15.452L4.82791 17.0415V18.8768C4.82791 19.0671 4.92945 19.2427 5.09407 19.3378L6.68357 20.2555L7.6013 21.845C7.69639 22.0097 7.8721 22.1112 8.06229 22.1112H8.94948V27.6785C8.94948 28.1081 9.45675 28.3627 9.80127 28.1043L11.7533 26.6403L13.7053 28.1043C14.0501 28.3629 14.5571 28.1076 14.5571 27.6785V22.1111H15.4443C15.6346 22.1111 15.8102 22.0096 15.9053 21.845L16.8231 20.2555L18.4125 19.3377C18.5772 19.2426 18.6787 19.0669 18.6787 18.8767V17.0414L19.5964 15.4519C19.6915 15.2872 19.6915 15.0842 19.5964 14.9195ZM13.4923 26.6138L12.0726 25.5491C11.8833 25.4071 11.6231 25.4071 11.4338 25.5491L10.0142 26.6138V22.1785L11.4871 23.0288C11.6501 23.123 11.8563 23.123 12.0194 23.0288L13.4923 22.1785L13.4923 26.6138ZM17.6852 16.6326C17.6385 16.7136 17.6139 16.8054 17.6139 16.8988V18.5695L16.1671 19.4049C16.0861 19.4515 16.0189 19.5188 15.9723 19.5997L15.1369 21.0465H13.4662C13.3727 21.0465 13.2809 21.0711 13.2 21.1178L11.7533 21.9531L10.3065 21.1177C10.2255 21.0711 10.1337 21.0464 10.0403 21.0464H8.36962L7.53423 19.5996C7.48755 19.5186 7.42028 19.4515 7.33939 19.4048L5.89267 18.5695V16.8988C5.89267 16.8053 5.86803 16.7135 5.82135 16.6326L4.98596 15.1858L5.82135 13.739C5.86803 13.6581 5.89267 13.5662 5.89267 13.4729V11.8022L7.33946 10.9668C7.42041 10.9201 7.48761 10.8529 7.5343 10.7719L8.36968 9.32514H10.0404C10.1338 9.32514 10.2257 9.30051 10.3066 9.25382L11.7533 8.4185L13.2001 9.25389C13.281 9.30057 13.3729 9.32521 13.4662 9.32521H15.1369L15.9723 10.772C16.019 10.853 16.0863 10.9202 16.1672 10.9668L17.6139 11.8022V13.4729C17.6139 13.5664 17.6386 13.6582 17.6853 13.7391L18.5206 15.1858L17.6852 16.6326Z" fill="#343434"/>
<path d="M11.7526 9.54276C8.64105 9.54276 6.10958 12.0742 6.10958 15.1858C6.10958 18.2973 8.64105 20.8287 11.7526 20.8287C14.8641 20.8287 17.3956 18.2973 17.3956 15.1858C17.3956 12.0742 14.8641 9.54276 11.7526 9.54276ZM11.7526 19.7641C9.22815 19.7641 7.17427 17.7102 7.17427 15.1858C7.17427 12.6613 9.22808 10.6074 11.7526 10.6074C14.2771 10.6074 16.3309 12.6613 16.3309 15.1858C16.3309 17.7102 14.2771 19.7641 11.7526 19.7641Z" fill="#343434"/>
<path d="M15.2352 14.7918L12.1121 11.9525C12.1117 11.9521 12.1111 11.9518 12.1107 11.9514C11.9108 11.7705 11.5951 11.7711 11.3959 11.9525L10.2988 12.9498V12.9143C10.2988 12.6203 10.0605 12.382 9.76646 12.382C9.47241 12.382 9.23408 12.6202 9.23408 12.9143V13.9178L8.27265 14.7918C8.07516 14.9713 8.04229 15.28 8.19854 15.4966C8.38189 15.7508 8.75662 15.7906 8.98884 15.5797L9.23408 15.3567V18.025C9.23408 18.3191 9.47241 18.5574 9.76646 18.5574H13.7414C14.0354 18.5574 14.2738 18.3191 14.2738 18.025V15.3567L14.519 15.5797C14.7512 15.7908 15.126 15.7508 15.3093 15.4966C15.4656 15.28 15.4327 14.9713 15.2352 14.7918ZM13.2091 14.4759V17.4926H12.2863V15.7536C12.2863 15.4595 12.048 15.2212 11.7539 15.2212C11.4599 15.2212 11.2215 15.4595 11.2215 15.7536V17.4926H10.2988V14.3887L11.7539 13.0659L13.2158 14.3949C13.2118 14.4214 13.2091 14.4483 13.2091 14.4759Z" fill="#343434"/>
<path d="M31.6294 12.2648H21.4081C21.1141 12.2648 20.8757 12.503 20.8757 12.7972C20.8757 13.0913 21.114 13.3295 21.4081 13.3295H31.6294C31.9234 13.3295 32.1618 13.0913 32.1618 12.7972C32.1618 12.503 31.9234 12.2648 31.6294 12.2648Z" fill="#343434"/>
<path d="M31.6294 15.5237H21.4081C21.1141 15.5237 20.8757 15.762 20.8757 16.0561C20.8757 16.3502 21.114 16.5884 21.4081 16.5884H31.6294C31.9234 16.5884 32.1618 16.3502 32.1618 16.0561C32.1618 15.762 31.9234 15.5237 31.6294 15.5237Z" fill="#343434"/>
<path d="M31.6294 18.4802H21.4081C21.1141 18.4802 20.8757 18.7185 20.8757 19.0126C20.8757 19.3067 21.114 19.545 21.4081 19.545H31.6294C31.9234 19.545 32.1618 19.3067 32.1618 19.0126C32.1618 18.7185 31.9234 18.4802 31.6294 18.4802Z" fill="#343434"/>
<path d="M31.6294 21.4367H21.4081C21.1141 21.4367 20.8757 21.675 20.8757 21.9691C20.8757 22.2632 21.114 22.5015 21.4081 22.5015H31.6294C31.9234 22.5015 32.1618 22.2632 32.1618 21.9691C32.1618 21.675 31.9234 21.4367 31.6294 21.4367Z" fill="#343434"/>
</svg>
