<svg width="36" height="36" viewBox="0 0 36 36" fill="none" xmlns="http://www.w3.org/2000/svg">
<path d="M27.5292 3.10583H26.3888V2.51836C26.3888 2.23202 26.1568 2 25.8704 2C25.5841 2 25.3521 2.23202 25.3521 2.51836V3.10583H23.0713V2.51836C23.0713 2.23202 22.8393 2 22.5529 2C22.2666 2 22.0346 2.23202 22.0346 2.51836V3.10583H19.7538V2.51836C19.7538 2.23202 19.5218 2 19.2354 2C18.9491 2 18.7171 2.23202 18.7171 2.51836V3.10583H16.4363V2.51836C16.4363 2.23202 16.2043 2 15.9179 2C15.6316 2 15.3996 2.23202 15.3996 2.51836V3.10583H13.1188V2.51836C13.1188 2.23202 12.8868 2 12.6004 2C12.3141 2 12.0821 2.23202 12.0821 2.51836V3.10583H9.8013V2.51836C9.8013 2.23202 9.56928 2 9.28294 2C8.9966 2 8.76458 2.23202 8.76458 2.51836V3.10583H7.62419C6.7286 3.10583 6 3.83444 6 4.73002V32.3758C6 33.2714 6.7286 34 7.62419 34H27.5292C28.4247 34 29.1534 33.2714 29.1534 32.3758V4.73002C29.1534 3.83444 28.4247 3.10583 27.5292 3.10583ZM28.1166 32.3758C28.1166 32.6997 27.8531 32.9633 27.5292 32.9633H7.62419C7.30025 32.9633 7.03672 32.6997 7.03672 32.3758V4.73002C7.03672 4.40608 7.30025 4.14255 7.62419 4.14255H8.76458V4.73002C8.76458 5.01636 8.9966 5.24838 9.28294 5.24838C9.56928 5.24838 9.8013 5.01636 9.8013 4.73002V4.14255H12.0821V4.73002C12.0821 5.01636 12.3141 5.24838 12.6004 5.24838C12.8868 5.24838 13.1188 5.01636 13.1188 4.73002V4.14255H15.3996V4.73002C15.3996 5.01636 15.6316 5.24838 15.9179 5.24838C16.2043 5.24838 16.4363 5.01636 16.4363 4.73002V4.14255H18.7171V4.73002C18.7171 5.01636 18.9491 5.24838 19.2354 5.24838C19.5218 5.24838 19.7538 5.01636 19.7538 4.73002V4.14255H22.0346V4.73002C22.0346 5.01636 22.2666 5.24838 22.5529 5.24838C22.8393 5.24838 23.0713 5.01636 23.0713 4.73002V4.14255H25.3521V4.73002C25.3521 5.01636 25.5841 5.24838 25.8704 5.24838C26.1568 5.24838 26.3888 5.01636 26.3888 4.73002V4.14255H27.5292C27.8531 4.14255 28.1166 4.40608 28.1166 4.73002V32.3758Z" fill="#343434"/>
<path d="M15.9216 10.2247H23.6624C23.9487 10.2247 24.1807 9.99269 24.1807 9.70635C24.1807 9.42001 23.9487 9.18799 23.6624 9.18799H15.9216C15.6352 9.18799 15.4032 9.42001 15.4032 9.70635C15.4032 9.99269 15.6352 10.2247 15.9216 10.2247Z" fill="#343434"/>
<path d="M25.874 11.3994H15.9216C15.6352 11.3994 15.4032 11.6314 15.4032 11.9178C15.4032 12.2041 15.6352 12.4361 15.9216 12.4361H25.874C26.1604 12.4361 26.3924 12.2041 26.3924 11.9178C26.3924 11.6314 26.1604 11.3994 25.874 11.3994Z" fill="#343434"/>
<path d="M13.3412 8.78672L10.9432 11.1849L9.65104 9.89263C9.44853 9.69026 9.12038 9.69026 8.91794 9.89263C8.7155 10.0951 8.7155 10.4233 8.91794 10.6257L10.5767 12.2845C10.6779 12.3857 10.8106 12.4362 10.9433 12.4362C11.0759 12.4362 11.2086 12.3857 11.3099 12.2845L14.0744 9.51989C14.2769 9.31739 14.2769 8.98923 14.0744 8.78679C13.8719 8.58443 13.5437 8.58443 13.3412 8.78672Z" fill="#343434"/>
<path d="M15.9216 15.7538H23.6624C23.9487 15.7538 24.1807 15.5217 24.1807 15.2354C24.1807 14.9491 23.9487 14.717 23.6624 14.717H15.9216C15.6352 14.717 15.4032 14.9491 15.4032 15.2354C15.4032 15.5217 15.6352 15.7538 15.9216 15.7538Z" fill="#343434"/>
<path d="M25.874 16.9287H15.9216C15.6352 16.9287 15.4032 17.1607 15.4032 17.4471C15.4032 17.7334 15.6352 17.9654 15.9216 17.9654H25.874C26.1604 17.9654 26.3924 17.7334 26.3924 17.4471C26.3924 17.1607 26.1604 16.9287 25.874 16.9287Z" fill="#343434"/>
<path d="M13.3412 14.316L10.9432 16.7142L9.65104 15.4219C9.44853 15.2196 9.12038 15.2196 8.91794 15.4219C8.7155 15.6244 8.7155 15.9526 8.91794 16.155L10.5767 17.8138C10.6779 17.915 10.8106 17.9655 10.9433 17.9655C11.0759 17.9655 11.2086 17.915 11.3099 17.8138L14.0744 15.0492C14.2769 14.8467 14.2769 14.5185 14.0744 14.3161C13.8719 14.1137 13.5437 14.1137 13.3412 14.316Z" fill="#343434"/>
<path d="M15.9216 21.2831H23.6624C23.9487 21.2831 24.1807 21.051 24.1807 20.7647C24.1807 20.4784 23.9487 20.2463 23.6624 20.2463H15.9216C15.6352 20.2463 15.4032 20.4784 15.4032 20.7647C15.4032 21.051 15.6352 21.2831 15.9216 21.2831Z" fill="#343434"/>
<path d="M25.874 22.458H15.9216C15.6352 22.458 15.4032 22.69 15.4032 22.9764C15.4032 23.2627 15.6352 23.4947 15.9216 23.4947H25.874C26.1604 23.4947 26.3924 23.2627 26.3924 22.9764C26.3924 22.69 26.1604 22.458 25.874 22.458Z" fill="#343434"/>
<path d="M13.3412 19.8451L10.9432 22.2432L9.65104 20.951C9.44853 20.7486 9.12038 20.7486 8.91794 20.951C8.7155 21.1535 8.7155 21.4816 8.91794 21.6841L10.5767 23.3428C10.6779 23.444 10.8106 23.4946 10.9433 23.4946C11.0759 23.4946 11.2086 23.444 11.3099 23.3428L14.0744 20.5782C14.2769 20.3757 14.2769 20.0476 14.0744 19.8451C13.8719 19.6428 13.5437 19.6428 13.3412 19.8451Z" fill="#343434"/>
<path d="M15.9216 26.8121H23.6624C23.9487 26.8121 24.1807 26.5801 24.1807 26.2937C24.1807 26.0074 23.9487 25.7754 23.6624 25.7754H15.9216C15.6352 25.7754 15.4032 26.0074 15.4032 26.2937C15.4032 26.5801 15.6352 26.8121 15.9216 26.8121Z" fill="#343434"/>
<path d="M25.874 27.9871H15.9216C15.6352 27.9871 15.4032 28.2191 15.4032 28.5054C15.4032 28.7918 15.6352 29.0238 15.9216 29.0238H25.874C26.1604 29.0238 26.3924 28.7918 26.3924 28.5054C26.3924 28.2191 26.1604 27.9871 25.874 27.9871Z" fill="#343434"/>
<path d="M13.3412 25.3741L10.9432 27.7723L9.65104 26.48C9.44853 26.2777 9.12038 26.2777 8.91794 26.48C8.7155 26.6825 8.7155 27.0107 8.91794 27.2131L10.5767 28.8719C10.6779 28.9731 10.8106 29.0236 10.9433 29.0236C11.0759 29.0236 11.2086 28.9731 11.3099 28.8719L14.0744 26.1073C14.2769 25.9048 14.2769 25.5766 14.0744 25.3742C13.8719 25.1718 13.5437 25.1718 13.3412 25.3741Z" fill="#343434"/>
</svg>
