<svg width="36" height="36" viewBox="0 0 36 36" fill="none" xmlns="http://www.w3.org/2000/svg">
<path d="M18.3066 22.7226C19.7015 22.7226 20.8364 21.589 20.8364 20.1955C20.8364 19.0108 20.0159 18.0145 18.9128 17.7425V13.7443C18.9128 13.3761 18.6143 13.0776 18.2461 13.0776C17.8779 13.0776 17.5795 13.3761 17.5795 13.7443V17.7758C16.5399 18.089 15.7803 19.055 15.7803 20.1955C15.7803 21.589 16.9136 22.7226 18.3066 22.7226ZM18.3066 19.002C18.9663 19.002 19.5031 19.5374 19.5031 20.1955C19.5031 20.8538 18.9663 21.3893 18.3066 21.3893C17.6487 21.3893 17.1136 20.8538 17.1136 20.1955C17.1136 19.5374 17.6488 19.002 18.3066 19.002Z" fill="#343434"/>
<path d="M33.3015 10.0779L28.0606 4.83833C27.8003 4.57807 27.3781 4.57807 27.1178 4.8384C26.8574 5.0988 26.8575 5.52087 27.1178 5.7812L29.096 7.75887L27.0953 9.75927C24.8013 7.767 21.952 6.60293 18.9151 6.418V6.35453H22.1271C23.2276 6.35453 24.4538 5.49007 24.4538 4.24953V3.98427C24.4538 2.7422 23.2709 2 22.1271 2H14.3701C13.2282 2 12.5465 2.7418 12.5465 3.98427V4.24953C12.5465 5.52827 13.2623 6.35453 14.3701 6.35453H17.5817V6.4C14.4127 6.5078 11.5113 7.68847 9.23038 9.59007L7.40012 7.75947L9.37885 5.7812C9.63925 5.52087 9.63925 5.0988 9.37898 4.8384C9.11872 4.578 8.69658 4.57793 8.43618 4.83833L5.98758 7.28627C5.98705 7.2868 5.98638 7.28727 5.98585 7.28787C5.98532 7.28847 5.98478 7.28907 5.98425 7.2896L3.19532 10.0779C2.93492 10.3383 2.93492 10.7603 3.19518 11.0207C3.32538 11.1509 3.49598 11.2161 3.66665 11.2161C3.83725 11.2161 4.00785 11.151 4.13798 11.0209L6.45718 8.7022L8.24752 10.4929C5.77912 12.9881 4.25238 16.4168 4.25238 20.1957C4.25245 27.8073 10.4452 34 18.0571 34C25.6696 34 31.8628 27.8073 31.8628 20.1956C31.8628 16.6226 30.515 13.2573 28.06 10.6802L30.039 8.7016L32.3588 11.0209C32.489 11.151 32.6595 11.2161 32.8301 11.2161C33.0007 11.2161 33.1714 11.1509 33.3016 11.0207C33.5619 10.7603 33.5618 10.3382 33.3015 10.0779ZM20.9292 3.33333H22.1271C22.597 3.33333 23.1205 3.60067 23.1205 3.98427V4.24953C23.1205 4.63893 22.6285 5.0212 22.1271 5.0212H20.9292V3.33333ZM15.5676 5.0212H14.3701C14.211 5.0212 13.8798 5.0212 13.8798 4.24953V3.98427C13.8798 3.33333 14.118 3.33333 14.3701 3.33333H15.5676V5.0212ZM16.9009 5.0212V3.33333H19.5959V5.0212H16.9009ZM18.0571 10.7027C23.2923 10.7027 27.5515 14.9612 27.5515 20.1956C27.5515 25.4299 23.2923 29.6883 18.0571 29.6883C12.823 29.6883 8.56465 25.4299 8.56465 20.1956C8.56465 14.9611 12.823 10.7027 18.0571 10.7027ZM30.5295 20.1955C30.5295 27.0721 24.9344 32.6667 18.0571 32.6667C11.1804 32.6667 5.58578 27.0721 5.58578 20.1956C5.58578 13.4781 10.9246 7.98507 17.5817 7.73427V9.3804C11.8321 9.63013 7.23132 14.3853 7.23132 20.1956C7.23132 26.1651 12.0877 31.0217 18.0571 31.0217C24.0276 31.0217 28.8848 26.1651 28.8848 20.1956C28.8848 14.5147 24.486 9.842 18.9151 9.40327V7.75427C25.3936 8.1966 30.5295 13.6072 30.5295 20.1955Z" fill="#343434"/>
</svg>
