<svg width="36" height="36" viewBox="0 0 36 36" fill="none" xmlns="http://www.w3.org/2000/svg">
<path d="M35.8774 19.0551L28.9599 10.422C28.854 10.2898 28.6936 10.2128 28.5241 10.2128H21.872C21.5635 10.2128 21.3135 10.4628 21.3135 10.7713C21.3135 11.0797 21.5635 11.3298 21.872 11.3298H28.2559L34.883 19.6005V23.2296H34.5135C34.2049 23.2296 33.955 23.4796 33.955 23.7881C33.955 24.0965 34.2049 24.3466 34.5135 24.3466H34.883V25.5087H31.9729C31.4221 23.8711 29.8736 22.6879 28.0528 22.6879C26.2321 22.6879 24.6835 23.8711 24.1328 25.5087H22.0232V3.11702H23.7337C24.0422 3.11702 24.2922 2.86696 24.2922 2.55851C24.2922 2.25006 24.0422 2 23.7337 2H5.6553L1.07484 12.375C1.02584 12.4599 1 12.5563 1 12.6543V26.0672C1 26.3756 1.24999 26.6257 1.55851 26.6257H2.58252C2.58051 26.6915 2.57753 26.7572 2.57753 26.8235C2.57753 27.1319 2.82752 27.382 3.13604 27.382C3.44456 27.382 3.69455 27.1319 3.69455 26.8235C3.69455 23.9271 6.05087 21.5708 8.94716 21.5708C11.8434 21.5708 14.1998 23.9271 14.1998 26.8235C14.1998 27.1319 14.4498 27.382 14.7583 27.382C15.0668 27.382 15.3168 27.1319 15.3168 26.8235C15.3168 26.7571 15.3138 26.6915 15.3118 26.6257H23.9223C23.9192 26.6913 23.9173 26.7572 23.9173 26.8235C23.9173 29.1038 25.7726 30.9591 28.0529 30.9591C30.3333 30.9591 32.1885 29.1038 32.1885 26.8235C32.1885 26.7571 32.1866 26.6913 32.1835 26.6257H35.4415C35.75 26.6257 36 26.3756 36 26.0672V19.4043C36 19.2774 35.9567 19.1542 35.8774 19.0551ZM8.94716 20.4538C5.88563 20.4538 3.32236 22.6253 2.7147 25.5087H2.11702V12.804L6.5 3.11702H20.9063V25.5087H15.1796C14.572 22.6253 12.0087 20.4538 8.94716 20.4538ZM28.0528 29.8421C26.3883 29.8421 25.0343 28.488 25.0343 26.8235C25.0343 25.159 26.3884 23.8049 28.0528 23.8049C29.7173 23.8049 31.0714 25.159 31.0714 26.8235C31.0714 28.488 29.7174 29.8421 28.0528 29.8421Z" fill="#343434"/>
<path d="M23.7337 12.4468C23.4252 12.4468 23.1752 12.6969 23.1752 13.0053V17.9067C23.1752 18.2152 23.4252 18.4652 23.7337 18.4652H31.3788C31.6873 18.4652 31.9373 18.2152 31.9373 17.9067C31.9373 17.5983 31.6873 17.3482 31.3788 17.3482H24.2922V13.0053C24.2922 12.6969 24.0422 12.4468 23.7337 12.4468Z" fill="#343434"/>
<path d="M8.94716 22.6879C6.6668 22.6879 4.81157 24.5431 4.81157 26.8235C4.81157 29.1039 6.6668 30.9591 8.94716 30.9591C11.2275 30.9591 13.0827 29.1039 13.0827 26.8235C13.0827 24.5431 11.2275 22.6879 8.94716 22.6879ZM8.94716 29.8421C7.28265 29.8421 5.9286 28.488 5.9286 26.8235C5.9286 25.159 7.28272 23.8049 8.94716 23.8049C10.6116 23.8049 11.9657 25.159 11.9657 26.8235C11.9657 28.488 10.6116 29.8421 8.94716 29.8421Z" fill="#343434"/>
<path d="M14.5843 7.87282C14.6591 7.88353 14.7214 7.93552 14.7453 8.00716C14.7695 8.07842 14.7506 8.15767 14.6972 8.21122L14.4151 8.49316C14.2644 8.64387 14.2644 8.90653 14.4151 9.05724C14.571 9.21318 14.8231 9.2131 14.979 9.05724L15.2609 8.7753C15.3143 8.72194 15.3933 8.70325 15.465 8.72721C15.5366 8.75116 15.5886 8.81346 15.5993 8.88823C15.6519 9.26031 15.5269 9.63688 15.2611 9.90306C14.9599 10.2041 14.5171 10.3228 14.1053 10.2128L11.1575 13.1608C11.2663 13.571 11.1478 14.0165 10.8477 14.3166C10.5833 14.581 10.2038 14.7075 9.8327 14.655C9.75793 14.6442 9.69561 14.5923 9.67167 14.5206C9.64772 14.4495 9.66641 14.3701 9.71976 14.3166L10.0019 14.0346C10.1526 13.8839 10.1526 13.6212 10.0019 13.4705C9.84599 13.3146 9.59389 13.3147 9.43802 13.4705L9.15608 13.7525C9.10273 13.8058 9.02368 13.8245 8.95202 13.8006C8.88036 13.7766 8.82838 13.7143 8.81768 13.6395C8.76487 13.2684 8.88586 12.895 9.15589 12.6247C9.4571 12.3237 9.89987 12.2049 10.3117 12.3149L13.2595 9.36701C13.1503 8.95462 13.2692 8.51126 13.5693 8.21122C13.8337 7.9468 14.2132 7.82025 14.5843 7.87282Z" fill="#343434"/>
</svg>
